<svg width="250" height="120" viewBox="0 0 250 120" fill="none" xmlns="http://www.w3.org/2000/svg">
<rect x="250" y="120" width="250" height="120" transform="rotate(-180 250 120)" fill="url(#paint0_linear_1669_266)"/>
<path d="M225.948 75.7491C220.93 75.7491 216.554 74.7086 212.821 72.6278C209.149 70.4858 206.272 67.487 204.192 63.6313C202.172 59.7757 201.162 55.2469 201.162 50.0448C201.162 44.8428 202.172 40.3445 204.192 36.5501C206.272 32.6944 209.149 29.6956 212.821 27.5536C216.493 25.4116 220.838 24.3405 225.856 24.3405C230.753 24.3405 235.006 25.4116 238.617 27.5536C242.228 29.6956 245.012 32.7556 246.971 36.7337C248.99 40.7117 250 45.4548 250 50.9628V53.7168H215.391C215.575 57.6337 216.615 60.5407 218.512 62.4379C220.471 64.3351 223.041 65.2838 226.224 65.2838C228.549 65.2838 230.477 64.7941 232.007 63.8149C233.598 62.8357 234.731 61.3363 235.404 59.3167L249.266 60.1429C247.98 65.039 245.257 68.864 241.095 71.618C236.934 74.372 231.885 75.7491 225.948 75.7491ZM215.391 45.2712H235.863C235.679 41.6603 234.669 38.9675 232.833 37.1927C231.059 35.4179 228.733 34.5304 225.856 34.5304C222.98 34.5304 220.593 35.4791 218.696 37.3763C216.86 39.2123 215.758 41.8439 215.391 45.2712Z" fill="#B04FFF"/>
<path d="M173.299 75.7491C168.219 75.7491 163.966 75.0453 160.539 73.6376C157.111 72.1688 154.48 70.2104 152.644 67.7624C150.869 65.2532 149.859 62.3767 149.614 59.1331L163.568 58.6741C163.996 60.9997 164.976 62.8051 166.506 64.0903C168.036 65.3756 170.3 66.0182 173.299 66.0182C175.747 66.0182 177.644 65.6204 178.99 64.8248C180.398 64.0291 181.102 62.8051 181.102 61.1527C181.102 60.1123 180.857 59.2555 180.367 58.5823C179.878 57.8479 178.899 57.2359 177.43 56.7463C176.022 56.1955 173.911 55.7059 171.096 55.2775C165.894 54.3594 161.824 53.2884 158.886 52.0644C155.949 50.8404 153.868 49.2492 152.644 47.2908C151.42 45.3324 150.808 42.9455 150.808 40.1303C150.808 35.4179 152.613 31.6234 156.224 28.747C159.896 25.8094 165.373 24.3405 172.656 24.3405C177.307 24.3405 181.194 25.075 184.315 26.5438C187.497 28.0126 189.945 30.0322 191.659 32.6026C193.434 35.1119 194.535 37.9883 194.964 41.2319L181.102 41.7827C180.918 40.1915 180.429 38.8451 179.633 37.7435C178.899 36.5807 177.95 35.6933 176.787 35.0813C175.624 34.408 174.217 34.0714 172.564 34.0714C170.116 34.0714 168.219 34.5916 166.873 35.6321C165.588 36.6113 164.945 37.9271 164.945 39.5795C164.945 40.8035 165.22 41.8133 165.771 42.6089C166.383 43.3433 167.362 43.9553 168.709 44.4449C170.055 44.9346 171.861 45.3324 174.125 45.6384C179.388 46.3728 183.55 47.4132 186.61 48.7596C189.731 50.0448 191.965 51.6666 193.311 53.625C194.658 55.5835 195.331 58.0009 195.331 60.8773C195.331 64.0597 194.413 66.7526 192.577 68.9558C190.741 71.159 188.171 72.842 184.866 74.0048C181.622 75.1677 177.766 75.7491 173.299 75.7491Z" fill="#B04FFF"/>
<path d="M118.732 75.7491C113.713 75.7491 109.337 74.7086 105.604 72.6278C101.871 70.4858 98.9638 67.487 96.8829 63.6313C94.8021 59.7757 93.7617 55.2469 93.7617 50.0448C93.7617 44.8428 94.8021 40.3445 96.8829 36.5501C98.9638 32.6944 101.871 29.6956 105.604 27.5536C109.337 25.4116 113.713 24.3405 118.732 24.3405C123.75 24.3405 128.126 25.4116 131.859 27.5536C135.592 29.6956 138.499 32.6944 140.58 36.5501C142.661 40.3445 143.701 44.8428 143.701 50.0448C143.701 55.2469 142.661 59.7757 140.58 63.6313C138.499 67.487 135.592 70.4858 131.859 72.6278C128.126 74.7086 123.75 75.7491 118.732 75.7491ZM118.732 65.192C122.159 65.192 124.821 63.8761 126.718 61.2445C128.615 58.5517 129.564 54.8185 129.564 50.0448C129.564 45.2712 128.615 41.5685 126.718 38.9369C124.821 36.2441 122.159 34.8977 118.732 34.8977C115.304 34.8977 112.642 36.2441 110.745 38.9369C108.848 41.5685 107.899 45.2712 107.899 50.0448C107.899 54.8185 108.848 58.5517 110.745 61.2445C112.642 63.8761 115.304 65.192 118.732 65.192Z" fill="#B04FFF"/>
<path d="M81.397 74.6476C77.3578 74.6476 74.206 73.6377 71.9415 71.6181C69.6771 69.5985 68.5449 66.3243 68.5449 61.7954V9.4689H82.315V60.3266C82.315 61.7954 82.6516 62.8358 83.3248 63.4478C83.998 64.0599 84.9772 64.3659 86.2625 64.3659H89.5673V74.6476H81.397Z" fill="#B04FFF"/>
<path d="M30.5696 76.1163C24.6332 76.1163 19.3393 74.7699 14.6881 72.0771C10.0981 69.3842 6.48725 65.498 3.85563 60.4183C1.28521 55.3387 0 49.2492 0 42.15C0 35.2343 1.25461 29.2366 3.76383 24.157C6.27305 19.0161 9.85327 15.0381 14.5045 12.2228C19.1557 9.40761 24.6026 8 30.845 8C39.3519 8 45.9615 10.1114 50.674 14.3343C55.4476 18.4959 58.5076 24.463 59.854 32.2354L45.3495 32.7863C44.6151 28.6858 43.0239 25.5034 40.5759 23.239C38.1279 20.9133 34.8843 19.7505 30.845 19.7505C27.3566 19.7505 24.3884 20.6685 21.9404 22.5045C19.4923 24.3406 17.6257 26.9416 16.3405 30.3076C15.0553 33.6737 14.4127 37.6211 14.4127 42.15C14.4127 46.74 15.0553 50.718 16.3405 54.0841C17.6869 57.3889 19.5841 59.9287 22.0322 61.7035C24.4802 63.4784 27.3872 64.3658 30.7532 64.3658C35.1597 64.3658 38.5563 63.1418 40.9431 60.6937C43.3911 58.1845 44.9211 54.7267 45.5331 50.3202L60.1294 50.871C59.2726 56.1955 57.5896 60.7243 55.0804 64.4576C52.5712 68.1908 49.2664 71.0672 45.1659 73.0869C41.1267 75.1065 36.2613 76.1163 30.5696 76.1163Z" fill="#B04FFF"/>
<defs>
<linearGradient id="paint0_linear_1669_266" x1="375.698" y1="120" x2="375.698" y2="242.938" gradientUnits="userSpaceOnUse">
<stop offset="0.0288462" stop-color="#E06EFF"/>
<stop offset="0.586538" stop-color="#8E38FF"/>
<stop offset="0.927885" stop-color="#0F061D"/>
<stop offset="1" stop-color="#020106"/>
</linearGradient>
</defs>
</svg>
