<svg width="169" height="48" viewBox="0 0 169 48" fill="none" xmlns="http://www.w3.org/2000/svg">
<g clip-path="url(#clip0_196_1026)">
<path fill-rule="evenodd" clip-rule="evenodd" d="M45.446 10.1055L31.1999 37.9549H17.8189L23.7808 26.4129H23.5134C18.5948 32.7978 11.2562 37.0011 0.799805 37.9549V26.5727C0.799805 26.5727 7.48901 26.1776 11.4214 22.0432H0.799805V10.1057H12.7373V19.9241L13.0053 19.923L17.8834 10.1057H26.9114V19.8619L27.1794 19.8614L32.2404 10.1055H45.446Z" fill="#7E829B"/>
<path d="M123.131 34.8804H126.975V12.8125H123.131V34.8804Z" fill="#7E829B"/>
<path fill-rule="evenodd" clip-rule="evenodd" d="M101.936 34.655C102.772 35.0025 103.621 35.176 104.485 35.176C105.912 35.176 107.189 34.8287 108.316 34.134C109.442 33.4393 110.315 32.4815 110.935 31.2611C111.555 30.0311 111.864 28.637 111.864 27.0785C111.864 25.5199 111.545 24.1257 110.907 22.8958C110.268 21.6659 109.381 20.713 108.245 20.037C107.109 19.3516 105.818 19.0137 104.372 19.023C103.452 19.023 102.57 19.2014 101.725 19.5582C100.88 19.915 100.176 20.4219 99.6124 21.0791C99.5689 21.1292 99.5267 21.1797 99.4857 21.2308V12.8266H95.6269V34.8804H99.4575L99.4498 32.8202C99.5489 32.9416 99.6548 33.0602 99.7674 33.1763C100.378 33.8054 101.101 34.2983 101.936 34.655ZM105.879 31.092C105.25 31.4769 104.532 31.6695 103.725 31.6695C102.927 31.6695 102.194 31.4723 101.528 31.078C100.861 30.6742 100.331 30.125 99.9363 29.4303C99.5514 28.7356 99.359 27.9469 99.359 27.0644C99.3495 26.1818 99.5373 25.3932 99.9222 24.6984C100.317 23.9943 100.847 23.4498 101.514 23.0648C102.18 22.6705 102.917 22.478 103.725 22.4874C104.532 22.478 105.25 22.6658 105.879 23.0507C106.518 23.4263 107.006 23.9661 107.344 24.6703C107.691 25.365 107.865 26.1631 107.865 27.0644C107.865 27.9656 107.691 28.7637 107.344 29.4585C107.006 30.1532 106.518 30.6977 105.879 31.092Z" fill="#7E829B"/>
<path d="M51.0161 14.1504H55.41L59.3405 28.5046L63.5217 14.1504H67.1833L71.718 28.2166L75.4921 14.1504H79.5198L73.5768 34.8804H69.7885L65.1775 21.1388L60.9445 34.8804H57.1139L51.0161 14.1504Z" fill="#7E829B"/>
<path fill-rule="evenodd" clip-rule="evenodd" d="M86.0084 35.2466C84.478 35.2558 83.0979 34.9178 81.8679 34.2325C80.6475 33.5378 79.6852 32.5754 78.981 31.3456C78.2863 30.1156 77.9388 28.712 77.9388 27.1348C77.9388 25.6045 78.2957 24.2196 79.0092 22.9803C79.7226 21.741 80.6898 20.774 81.9102 20.0793C83.1307 19.3845 84.492 19.0371 85.9943 19.0371C87.6842 19.0371 89.1629 19.4127 90.4304 20.1638C91.7072 20.9148 92.6602 21.9804 93.2892 23.3606C93.9276 24.7313 94.1576 26.3039 93.9793 28.0783H81.9162C81.9499 28.7852 82.1263 29.4284 82.4454 30.0076C82.8021 30.6461 83.2998 31.1437 83.9381 31.5004C84.5765 31.8572 85.2901 32.0355 86.0788 32.0355C86.6796 32.0263 87.2382 31.9229 87.7546 31.7258C88.271 31.5193 88.7075 31.2423 89.0644 30.895C89.4304 30.5475 89.6886 30.1532 89.8388 29.712H93.8666C93.6225 30.7916 93.1343 31.754 92.402 32.5989C91.6696 33.4345 90.7495 34.087 89.6417 34.5565C88.5338 35.0258 87.3227 35.2558 86.0084 35.2466ZM82.4595 24.2055C82.2344 24.5979 82.0786 25.0204 81.9918 25.473H89.9881C89.9301 24.9012 89.7536 24.3801 89.4586 23.9098C89.1207 23.3559 88.6606 22.9287 88.0785 22.6283C87.4964 22.3184 86.8393 22.1635 86.1069 22.1635C85.3277 22.1635 84.6189 22.3419 83.9805 22.6987C83.342 23.0554 82.8349 23.5577 82.4595 24.2055Z" fill="#7E829B"/>
<path d="M114.695 19.361C114.695 18.103 114.982 16.9857 115.554 16.0093C116.127 15.0235 116.93 14.2583 117.962 13.7138C119.004 13.1599 120.22 12.8735 121.61 12.8547V16.2769C120.962 16.2863 120.408 16.4224 119.948 16.6853C119.497 16.9388 119.15 17.3096 118.906 17.7978C118.681 18.2473 118.56 18.7683 118.542 19.361H121.525V22.6142H118.54V34.8804H114.695V22.6142H112.217V19.361H114.695Z" fill="#7E829B"/>
<path fill-rule="evenodd" clip-rule="evenodd" d="M136.749 35.2184C135.181 35.2184 133.777 34.8756 132.538 34.1903C131.308 33.4956 130.341 32.5378 129.637 31.3174C128.942 30.0874 128.595 28.6933 128.595 27.1348C128.595 25.5669 128.942 24.168 129.637 22.9381C130.341 21.6988 131.308 20.7365 132.538 20.0511C133.777 19.3657 135.181 19.023 136.749 19.023C138.326 19.023 139.734 19.3657 140.974 20.0511C142.222 20.7365 143.194 21.6941 143.889 22.924C144.583 24.1539 144.936 25.5575 144.945 27.1348C144.936 28.6933 144.583 30.0874 143.889 31.3174C143.203 32.5378 142.236 33.4956 140.988 34.1903C139.739 34.8756 138.326 35.2184 136.749 35.2184ZM136.749 31.6836C137.575 31.6836 138.307 31.4958 138.946 31.1202C139.584 30.7353 140.077 30.2001 140.424 29.5148C140.772 28.82 140.945 28.0267 140.945 27.1348C140.945 26.2335 140.772 25.4354 140.424 24.7407C140.077 24.0459 139.584 23.5108 138.946 23.1352C138.307 22.7503 137.575 22.5578 136.749 22.5578C135.932 22.5578 135.204 22.7503 134.566 23.1352C133.937 23.5108 133.449 24.0459 133.101 24.7407C132.754 25.4354 132.585 26.2335 132.594 27.1348C132.594 28.0267 132.768 28.82 133.115 29.5148C133.472 30.2001 133.96 30.7353 134.58 31.1202C135.209 31.4958 135.932 31.6836 136.749 31.6836Z" fill="#7E829B"/>
<path d="M149.099 19.361H144.818L149.451 34.8804H153.198L156.245 24.9682L159.535 34.8804H163.225L167.872 19.361H164L161.364 29.0208L158.451 19.361H154.704L151.805 29.2337L149.099 19.361Z" fill="#7E829B"/>
</g>
<defs>
<clipPath id="clip0_196_1026">
<rect width="168" height="48" fill="white" transform="translate(0.799805)"/>
</clipPath>
</defs>
</svg>
