<svg width="80" height="70" viewBox="0 0 80 70" fill="none" xmlns="http://www.w3.org/2000/svg">
<g filter="url(#filter0_d_1659_2888)">
<rect x="15" y="5" width="50" height="40" rx="15" fill="url(#paint0_linear_1659_2888)"/>
<rect x="15" y="5" width="50" height="40" rx="15" fill="url(#paint1_radial_1659_2888)"/>
</g>
<g filter="url(#filter1_d_1659_2888)">
<path d="M47 30V29.7754C46.7818 29.8416 46.5568 29.8872 46.3281 29.918C45.7014 30.0022 44.9145 30 44 30H34.5C33.6716 30 33 30.6716 33 31.5C33 32.3284 33.6716 33 34.5 33H44C44.9711 33 45.599 32.9977 46.0615 32.9356C46.4951 32.8772 46.6309 32.7831 46.707 32.707L46.7666 32.6348C46.8279 32.5441 46.8918 32.3865 46.9356 32.0615C46.9977 31.599 47 30.9711 47 30ZM47 20C47 19.0289 46.9977 18.401 46.9356 17.9385C46.8918 17.6135 46.8279 17.4559 46.7666 17.3652L46.707 17.293C46.6309 17.2169 46.4951 17.1228 46.0615 17.0645C45.599 17.0023 44.9711 17 44 17H36C35.0289 17 34.401 17.0023 33.9385 17.0645C33.6135 17.1082 33.4559 17.1721 33.3652 17.2334L33.293 17.293C33.2169 17.3691 33.1228 17.5049 33.0645 17.9385C33.0023 18.401 33 19.0289 33 20V28.3359C33.4545 28.1201 33.9633 28 34.5 28H44C44.9711 28 45.599 27.9977 46.0615 27.9356C46.4951 27.8772 46.6309 27.7831 46.707 27.707L46.7666 27.6348C46.8279 27.5441 46.8918 27.3865 46.9356 27.0615C46.9977 26.599 47 25.9711 47 25V20ZM49 30C49 30.9145 49.0022 31.7014 48.918 32.3281C48.8408 32.9017 48.6786 33.4542 48.2979 33.9248L48.1211 34.1211C47.6115 34.6307 46.9835 34.8298 46.3281 34.918C45.7014 35.0022 44.9145 35 44 35H34.5C32.567 35 31 33.433 31 31.5V20C31 19.0855 30.9978 18.2986 31.082 17.6719C31.1702 17.0165 31.3693 16.3885 31.8789 15.8789L32.0752 15.7022C32.5458 15.3214 33.0983 15.1592 33.6719 15.082C34.2986 14.9978 35.0855 15 36 15H44C44.9145 15 45.7014 14.9978 46.3281 15.082C46.9835 15.1702 47.6115 15.3693 48.1211 15.8789L48.2979 16.0752C48.6786 16.5458 48.8408 17.0983 48.918 17.6719C49.0022 18.2986 49 19.0855 49 20V30Z" fill="white"/>
<path d="M47 30V29.7754C46.7818 29.8416 46.5568 29.8872 46.3281 29.918C45.7014 30.0022 44.9145 30 44 30H34.5C33.6716 30 33 30.6716 33 31.5C33 32.3284 33.6716 33 34.5 33H44C44.9711 33 45.599 32.9977 46.0615 32.9356C46.4951 32.8772 46.6309 32.7831 46.707 32.707L46.7666 32.6348C46.8279 32.5441 46.8918 32.3865 46.9356 32.0615C46.9977 31.599 47 30.9711 47 30ZM47 20C47 19.0289 46.9977 18.401 46.9356 17.9385C46.8918 17.6135 46.8279 17.4559 46.7666 17.3652L46.707 17.293C46.6309 17.2169 46.4951 17.1228 46.0615 17.0645C45.599 17.0023 44.9711 17 44 17H36C35.0289 17 34.401 17.0023 33.9385 17.0645C33.6135 17.1082 33.4559 17.1721 33.3652 17.2334L33.293 17.293C33.2169 17.3691 33.1228 17.5049 33.0645 17.9385C33.0023 18.401 33 19.0289 33 20V28.3359C33.4545 28.1201 33.9633 28 34.5 28H44C44.9711 28 45.599 27.9977 46.0615 27.9356C46.4951 27.8772 46.6309 27.7831 46.707 27.707L46.7666 27.6348C46.8279 27.5441 46.8918 27.3865 46.9356 27.0615C46.9977 26.599 47 25.9711 47 25V20ZM49 30C49 30.9145 49.0022 31.7014 48.918 32.3281C48.8408 32.9017 48.6786 33.4542 48.2979 33.9248L48.1211 34.1211C47.6115 34.6307 46.9835 34.8298 46.3281 34.918C45.7014 35.0022 44.9145 35 44 35H34.5C32.567 35 31 33.433 31 31.5V20C31 19.0855 30.9978 18.2986 31.082 17.6719C31.1702 17.0165 31.3693 16.3885 31.8789 15.8789L32.0752 15.7022C32.5458 15.3214 33.0983 15.1592 33.6719 15.082C34.2986 14.9978 35.0855 15 36 15H44C44.9145 15 45.7014 14.9978 46.3281 15.082C46.9835 15.1702 47.6115 15.3693 48.1211 15.8789L48.2979 16.0752C48.6786 16.5458 48.8408 17.0983 48.918 17.6719C49.0022 18.2986 49 19.0855 49 20V30Z" fill="url(#paint2_linear_1659_2888)"/>
<path d="M42.3689 20.2246C42.7617 19.9043 43.3407 19.9269 43.7068 20.293C44.0729 20.6591 44.0955 21.2381 43.7752 21.6309L43.7068 21.707L40.4138 25C39.6816 25.7322 38.5226 25.7784 37.7371 25.1377L37.5857 25L36.2927 23.707L36.2244 23.6309C35.904 23.2381 35.9266 22.6591 36.2927 22.293C36.6589 21.9269 37.2379 21.9043 37.6306 22.2246L37.7068 22.293L38.9998 23.5859L42.2927 20.293L42.3689 20.2246Z" fill="white"/>
<path d="M42.3689 20.2246C42.7617 19.9043 43.3407 19.9269 43.7068 20.293C44.0729 20.6591 44.0955 21.2381 43.7752 21.6309L43.7068 21.707L40.4138 25C39.6816 25.7322 38.5226 25.7784 37.7371 25.1377L37.5857 25L36.2927 23.707L36.2244 23.6309C35.904 23.2381 35.9266 22.6591 36.2927 22.293C36.6589 21.9269 37.2379 21.9043 37.6306 22.2246L37.7068 22.293L38.9998 23.5859L42.2927 20.293L42.3689 20.2246Z" fill="url(#paint3_linear_1659_2888)"/>
</g>
<defs>
<filter id="filter0_d_1659_2888" x="0" y="0" width="80" height="70" filterUnits="userSpaceOnUse" color-interpolation-filters="sRGB">
<feFlood flood-opacity="0" result="BackgroundImageFix"/>
<feColorMatrix in="SourceAlpha" type="matrix" values="0 0 0 0 0 0 0 0 0 0 0 0 0 0 0 0 0 0 127 0" result="hardAlpha"/>
<feOffset dy="10"/>
<feGaussianBlur stdDeviation="7.5"/>
<feComposite in2="hardAlpha" operator="out"/>
<feColorMatrix type="matrix" values="0 0 0 0 0.4 0 0 0 0 0.0627451 0 0 0 0 0.960784 0 0 0 0.4 0"/>
<feBlend mode="normal" in2="BackgroundImageFix" result="effect1_dropShadow_1659_2888"/>
<feBlend mode="normal" in="SourceGraphic" in2="effect1_dropShadow_1659_2888" result="shape"/>
</filter>
<filter id="filter1_d_1659_2888" x="27" y="9" width="26" height="28" filterUnits="userSpaceOnUse" color-interpolation-filters="sRGB">
<feFlood flood-opacity="0" result="BackgroundImageFix"/>
<feColorMatrix in="SourceAlpha" type="matrix" values="0 0 0 0 0 0 0 0 0 0 0 0 0 0 0 0 0 0 127 0" result="hardAlpha"/>
<feOffset dy="-2"/>
<feGaussianBlur stdDeviation="2"/>
<feComposite in2="hardAlpha" operator="out"/>
<feColorMatrix type="matrix" values="0 0 0 0 0.508632 0 0 0 0 0.213811 0 0 0 0 1 0 0 0 1 0"/>
<feBlend mode="normal" in2="BackgroundImageFix" result="effect1_dropShadow_1659_2888"/>
<feBlend mode="normal" in="SourceGraphic" in2="effect1_dropShadow_1659_2888" result="shape"/>
</filter>
<linearGradient id="paint0_linear_1659_2888" x1="40" y1="5" x2="40" y2="45" gradientUnits="userSpaceOnUse">
<stop stop-color="#B846FF"/>
<stop offset="1" stop-color="#6610F5"/>
</linearGradient>
<radialGradient id="paint1_radial_1659_2888" cx="0" cy="0" r="1" gradientUnits="userSpaceOnUse" gradientTransform="translate(40 40) rotate(90) scale(11.5 73.4722)">
<stop stop-color="#9B5FFF"/>
<stop offset="1" stop-color="#9B5FFF" stop-opacity="0"/>
</radialGradient>
<linearGradient id="paint2_linear_1659_2888" x1="40.2706" y1="18.2583" x2="39.8214" y2="34.9952" gradientUnits="userSpaceOnUse">
<stop stop-color="white"/>
<stop offset="0.466346" stop-color="#6610F5" stop-opacity="0.5"/>
<stop offset="1" stop-color="#6610F5" stop-opacity="0.4"/>
</linearGradient>
<linearGradient id="paint3_linear_1659_2888" x1="40.12" y1="20.9102" x2="40.0411" y2="25.5867" gradientUnits="userSpaceOnUse">
<stop stop-color="white"/>
<stop offset="0.466346" stop-color="#6610F5" stop-opacity="0.5"/>
<stop offset="1" stop-color="#6610F5" stop-opacity="0.4"/>
</linearGradient>
</defs>
</svg>
