<svg width="80" height="70" viewBox="0 0 80 70" fill="none" xmlns="http://www.w3.org/2000/svg">
<g filter="url(#filter0_d_1659_2889)">
<rect x="15" y="5" width="50" height="40" rx="15" fill="url(#paint0_linear_1659_2889)"/>
<rect x="15" y="5" width="50" height="40" rx="15" fill="url(#paint1_radial_1659_2889)"/>
</g>
<g filter="url(#filter1_d_1659_2889)">
<path d="M35.1211 17.4141L32.8281 19.707H49.4141C49.9663 19.707 50.4141 20.1547 50.4141 20.707C50.4141 21.2593 49.9663 21.707 49.4141 21.707H32.8281L35.1211 24L33.707 25.4141L29 20.707L33.707 16L35.1211 17.4141Z" fill="white"/>
<path d="M35.1211 17.4141L32.8281 19.707H49.4141C49.9663 19.707 50.4141 20.1547 50.4141 20.707C50.4141 21.2593 49.9663 21.707 49.4141 21.707H32.8281L35.1211 24L33.707 25.4141L29 20.707L33.707 16L35.1211 17.4141Z" fill="url(#paint2_linear_1659_2889)"/>
<path d="M45.707 25.4141L48 27.707L41.4141 27.707C40.8618 27.707 40.4141 28.1547 40.4141 28.707C40.4141 29.2593 40.8618 29.707 41.4141 29.707L48 29.707L45.707 32L47.1211 33.4141L51.8281 28.707L47.1211 24L45.707 25.4141Z" fill="white"/>
<path d="M45.707 25.4141L48 27.707L41.4141 27.707C40.8618 27.707 40.4141 28.1547 40.4141 28.707C40.4141 29.2593 40.8618 29.707 41.4141 29.707L48 29.707L45.707 32L47.1211 33.4141L51.8281 28.707L47.1211 24L45.707 25.4141Z" fill="url(#paint3_linear_1659_2889)"/>
</g>
<defs>
<filter id="filter0_d_1659_2889" x="0" y="0" width="80" height="70" filterUnits="userSpaceOnUse" color-interpolation-filters="sRGB">
<feFlood flood-opacity="0" result="BackgroundImageFix"/>
<feColorMatrix in="SourceAlpha" type="matrix" values="0 0 0 0 0 0 0 0 0 0 0 0 0 0 0 0 0 0 127 0" result="hardAlpha"/>
<feOffset dy="10"/>
<feGaussianBlur stdDeviation="7.5"/>
<feComposite in2="hardAlpha" operator="out"/>
<feColorMatrix type="matrix" values="0 0 0 0 0.4 0 0 0 0 0.0627451 0 0 0 0 0.960784 0 0 0 0.4 0"/>
<feBlend mode="normal" in2="BackgroundImageFix" result="effect1_dropShadow_1659_2889"/>
<feBlend mode="normal" in="SourceGraphic" in2="effect1_dropShadow_1659_2889" result="shape"/>
</filter>
<filter id="filter1_d_1659_2889" x="25" y="10" width="30.8281" height="25.4141" filterUnits="userSpaceOnUse" color-interpolation-filters="sRGB">
<feFlood flood-opacity="0" result="BackgroundImageFix"/>
<feColorMatrix in="SourceAlpha" type="matrix" values="0 0 0 0 0 0 0 0 0 0 0 0 0 0 0 0 0 0 127 0" result="hardAlpha"/>
<feOffset dy="-2"/>
<feGaussianBlur stdDeviation="2"/>
<feComposite in2="hardAlpha" operator="out"/>
<feColorMatrix type="matrix" values="0 0 0 0 0.509804 0 0 0 0 0.215686 0 0 0 0 1 0 0 0 1 0"/>
<feBlend mode="normal" in2="BackgroundImageFix" result="effect1_dropShadow_1659_2889"/>
<feBlend mode="normal" in="SourceGraphic" in2="effect1_dropShadow_1659_2889" result="shape"/>
</filter>
<linearGradient id="paint0_linear_1659_2889" x1="40" y1="5" x2="40" y2="45" gradientUnits="userSpaceOnUse">
<stop stop-color="#B846FF"/>
<stop offset="1" stop-color="#6610F5"/>
</linearGradient>
<radialGradient id="paint1_radial_1659_2889" cx="0" cy="0" r="1" gradientUnits="userSpaceOnUse" gradientTransform="translate(40 40) rotate(90) scale(11.5 73.4722)">
<stop stop-color="#9B5FFF"/>
<stop offset="1" stop-color="#9B5FFF" stop-opacity="0"/>
</radialGradient>
<linearGradient id="paint2_linear_1659_2889" x1="40.0289" y1="17.5337" x2="39.9452" y2="25.4166" gradientUnits="userSpaceOnUse">
<stop stop-color="white"/>
<stop offset="0.466346" stop-color="#6610F5" stop-opacity="0.5"/>
<stop offset="1" stop-color="#6610F5" stop-opacity="0.4"/>
</linearGradient>
<linearGradient id="paint3_linear_1659_2889" x1="45.9495" y1="25.5337" x2="46.1065" y2="33.4144" gradientUnits="userSpaceOnUse">
<stop stop-color="#6610F5" stop-opacity="0.5"/>
<stop offset="1" stop-color="#6610F5" stop-opacity="0.6"/>
</linearGradient>
</defs>
</svg>
