<svg width="211" height="39" viewBox="0 0 211 39" fill="none" xmlns="http://www.w3.org/2000/svg">
<path d="M199.584 29.9716V12.9316H201.6V24.0916L207.792 17.2516H210.48L205.464 22.6516L210.696 29.9716H208.248L204.096 24.0196L201.6 26.6596V29.9716H199.584Z" fill="black"/>
<path d="M185.873 29.9709V17.2509H187.721L187.793 20.4909L187.553 20.2749C187.713 19.5229 187.993 18.9069 188.393 18.4269C188.793 17.9309 189.273 17.5629 189.833 17.3229C190.409 17.0829 191.025 16.9629 191.681 16.9629C192.657 16.9629 193.457 17.1789 194.081 17.6109C194.721 18.0429 195.193 18.6269 195.497 19.3629C195.817 20.0829 195.977 20.8909 195.977 21.7869V29.9709H193.961V22.3629C193.961 21.5789 193.865 20.9229 193.673 20.3949C193.497 19.8509 193.209 19.4429 192.809 19.1709C192.409 18.8829 191.889 18.7389 191.249 18.7389C190.273 18.7389 189.465 19.0509 188.825 19.6749C188.201 20.2829 187.889 21.1789 187.889 22.3629V29.9709H185.873Z" fill="black"/>
<path d="M176.181 30.2589C174.869 30.2589 173.821 29.9549 173.037 29.3469C172.269 28.7389 171.885 27.8909 171.885 26.8029C171.885 25.7149 172.205 24.8589 172.845 24.2349C173.485 23.6109 174.501 23.1709 175.893 22.9149L180.405 22.0749C180.405 21.0029 180.149 20.2029 179.637 19.6749C179.141 19.1469 178.389 18.8829 177.381 18.8829C176.501 18.8829 175.805 19.0829 175.293 19.4829C174.781 19.8669 174.429 20.4269 174.237 21.1629L172.101 20.9949C172.341 19.7949 172.917 18.8269 173.829 18.0909C174.757 17.3389 175.941 16.9629 177.381 16.9629C179.013 16.9629 180.261 17.4269 181.125 18.3549C181.989 19.2669 182.421 20.5309 182.421 22.1469V27.4029C182.421 27.6909 182.469 27.8989 182.565 28.0269C182.677 28.1389 182.853 28.1949 183.093 28.1949H183.597V29.9709C183.533 29.9869 183.429 29.9949 183.285 29.9949C183.141 30.0109 182.989 30.0189 182.829 30.0189C182.253 30.0189 181.781 29.9309 181.413 29.7549C181.061 29.5629 180.805 29.2749 180.645 28.8909C180.485 28.4909 180.405 27.9709 180.405 27.3309L180.645 27.3789C180.533 27.9229 180.261 28.4189 179.829 28.8669C179.397 29.2989 178.861 29.6429 178.221 29.8989C177.581 30.1389 176.901 30.2589 176.181 30.2589ZM176.373 28.4829C177.221 28.4829 177.941 28.3229 178.533 28.0029C179.141 27.6669 179.605 27.2189 179.925 26.6589C180.245 26.0829 180.405 25.4429 180.405 24.7389V23.8269L176.277 24.5949C175.413 24.7549 174.813 25.0029 174.477 25.3389C174.157 25.6589 173.997 26.0829 173.997 26.6109C173.997 27.2029 174.205 27.6669 174.621 28.0029C175.053 28.3229 175.637 28.4829 176.373 28.4829Z" fill="black"/>
<path d="M157.004 29.9716V12.9316H163.46C164.66 12.9316 165.692 13.1396 166.556 13.5556C167.42 13.9716 168.084 14.5716 168.548 15.3556C169.028 16.1236 169.268 17.0356 169.268 18.0916C169.268 18.8596 169.084 19.5476 168.716 20.1556C168.364 20.7476 167.908 21.2196 167.348 21.5716C166.788 21.9236 166.204 22.1156 165.596 22.1476L165.452 21.9316C166.492 21.9316 167.308 22.1716 167.9 22.6516C168.508 23.1316 168.86 23.8996 168.956 24.9556L169.436 29.9716H167.348L166.916 25.1716C166.852 24.4676 166.596 23.9476 166.148 23.6116C165.716 23.2756 165.004 23.1076 164.012 23.1076H159.068V29.9716H157.004ZM159.068 21.0916H163.724C164.764 21.0916 165.588 20.8276 166.196 20.2996C166.804 19.7716 167.108 19.0196 167.108 18.0436C167.108 17.0516 166.796 16.2916 166.172 15.7636C165.548 15.2196 164.644 14.9476 163.46 14.9476H159.068V21.0916Z" fill="black"/>
<path d="M140.956 30.2596C139.852 30.2596 138.892 29.9876 138.076 29.4436C137.276 28.8996 136.66 28.1316 136.228 27.1396C135.796 26.1476 135.58 24.9716 135.58 23.6116C135.58 22.2516 135.796 21.0756 136.228 20.0836C136.66 19.0916 137.276 18.3236 138.076 17.7796C138.892 17.2356 139.852 16.9636 140.956 16.9636C141.804 16.9636 142.58 17.1476 143.284 17.5156C143.988 17.8676 144.516 18.3716 144.868 19.0276V12.9316H146.884V29.9716H145.06L144.988 28.0516C144.636 28.7396 144.1 29.2836 143.38 29.6836C142.66 30.0676 141.852 30.2596 140.956 30.2596ZM141.364 28.3396C142.116 28.3396 142.748 28.1476 143.26 27.7636C143.788 27.3796 144.188 26.8356 144.46 26.1316C144.732 25.4116 144.868 24.5716 144.868 23.6116C144.868 22.6196 144.732 21.7716 144.46 21.0676C144.188 20.3636 143.788 19.8276 143.26 19.4596C142.748 19.0756 142.116 18.8836 141.364 18.8836C140.244 18.8836 139.348 19.3076 138.676 20.1556C138.02 20.9876 137.692 22.1396 137.692 23.6116C137.692 25.0676 138.02 26.2196 138.676 27.0676C139.348 27.9156 140.244 28.3396 141.364 28.3396Z" fill="black"/>
<path d="M122.779 29.9709V17.2509H124.627L124.699 20.4909L124.459 20.2749C124.619 19.5229 124.899 18.9069 125.299 18.4269C125.699 17.9309 126.179 17.5629 126.739 17.3229C127.315 17.0829 127.931 16.9629 128.587 16.9629C129.563 16.9629 130.363 17.1789 130.987 17.6109C131.627 18.0429 132.099 18.6269 132.403 19.3629C132.723 20.0829 132.883 20.8909 132.883 21.7869V29.9709H130.867V22.3629C130.867 21.5789 130.771 20.9229 130.579 20.3949C130.403 19.8509 130.115 19.4429 129.715 19.1709C129.315 18.8829 128.795 18.7389 128.155 18.7389C127.179 18.7389 126.371 19.0509 125.731 19.6749C125.107 20.2829 124.795 21.1789 124.795 22.3629V29.9709H122.779Z" fill="black"/>
<path d="M113.087 30.2589C111.775 30.2589 110.727 29.9549 109.943 29.3469C109.175 28.7389 108.791 27.8909 108.791 26.8029C108.791 25.7149 109.111 24.8589 109.751 24.2349C110.391 23.6109 111.407 23.1709 112.799 22.9149L117.311 22.0749C117.311 21.0029 117.055 20.2029 116.543 19.6749C116.047 19.1469 115.295 18.8829 114.287 18.8829C113.407 18.8829 112.711 19.0829 112.199 19.4829C111.687 19.8669 111.335 20.4269 111.143 21.1629L109.007 20.9949C109.247 19.7949 109.823 18.8269 110.735 18.0909C111.663 17.3389 112.847 16.9629 114.287 16.9629C115.919 16.9629 117.167 17.4269 118.031 18.3549C118.895 19.2669 119.327 20.5309 119.327 22.1469V27.4029C119.327 27.6909 119.375 27.8989 119.471 28.0269C119.583 28.1389 119.759 28.1949 119.999 28.1949H120.503V29.9709C120.439 29.9869 120.335 29.9949 120.191 29.9949C120.047 30.0109 119.895 30.0189 119.735 30.0189C119.159 30.0189 118.687 29.9309 118.319 29.7549C117.967 29.5629 117.711 29.2749 117.551 28.8909C117.391 28.4909 117.311 27.9709 117.311 27.3309L117.551 27.3789C117.439 27.9229 117.167 28.4189 116.735 28.8669C116.303 29.2989 115.767 29.6429 115.127 29.8989C114.487 30.1389 113.807 30.2589 113.087 30.2589ZM113.279 28.4829C114.127 28.4829 114.847 28.3229 115.439 28.0029C116.047 27.6669 116.511 27.2189 116.831 26.6589C117.151 26.0829 117.311 25.4429 117.311 24.7389V23.8269L113.183 24.5949C112.319 24.7549 111.719 25.0029 111.383 25.3389C111.063 25.6589 110.903 26.0829 110.903 26.6109C110.903 27.2029 111.111 27.6669 111.527 28.0029C111.959 28.3229 112.543 28.4829 113.279 28.4829Z" fill="black"/>
<path d="M95.1699 30.2589C93.9699 30.2589 92.9299 29.9869 92.0499 29.4429C91.1859 28.8989 90.5139 28.1309 90.0339 27.1389C89.5699 26.1309 89.3379 24.9549 89.3379 23.6109C89.3379 22.2669 89.5699 21.0989 90.0339 20.1069C90.5139 19.1149 91.1779 18.3469 92.0259 17.8029C92.8899 17.2429 93.9059 16.9629 95.0739 16.9629C96.1779 16.9629 97.1539 17.2269 98.0019 17.7549C98.8499 18.2669 99.5059 19.0189 99.9699 20.0109C100.45 21.0029 100.69 22.2109 100.69 23.6349V24.2349H91.4499C91.5299 25.5949 91.8899 26.6189 92.5299 27.3069C93.1859 27.9949 94.0659 28.3389 95.1699 28.3389C96.0019 28.3389 96.6819 28.1469 97.2099 27.7629C97.7539 27.3629 98.1299 26.8429 98.3379 26.2029L100.498 26.3709C100.162 27.5069 99.5219 28.4429 98.5779 29.1789C97.6499 29.8989 96.5139 30.2589 95.1699 30.2589ZM91.4499 22.4589H98.4819C98.3859 21.2269 98.0259 20.3229 97.4019 19.7469C96.7939 19.1709 96.0179 18.8829 95.0739 18.8829C94.0979 18.8829 93.2899 19.1869 92.6499 19.7949C92.0259 20.3869 91.6259 21.2749 91.4499 22.4589Z" fill="black"/>
<path d="M82.4823 30.2589C81.3463 30.2589 80.3783 30.0749 79.5783 29.7069C78.7943 29.3389 78.1783 28.8349 77.7303 28.1949C77.2983 27.5389 77.0503 26.7949 76.9863 25.9629L79.0983 25.8189C79.2263 26.5869 79.5543 27.2029 80.0823 27.6669C80.6103 28.1149 81.4103 28.3389 82.4823 28.3389C83.3463 28.3389 84.0343 28.2029 84.5463 27.9309C85.0743 27.6429 85.3383 27.1869 85.3383 26.5629C85.3383 26.2269 85.2583 25.9469 85.0983 25.7229C84.9383 25.4989 84.6263 25.3069 84.1623 25.1469C83.6983 24.9709 83.0103 24.8029 82.0983 24.6429C80.8823 24.4189 79.9223 24.1469 79.2183 23.8269C78.5303 23.4909 78.0343 23.0829 77.7303 22.6029C77.4423 22.1069 77.2983 21.5229 77.2983 20.8509C77.2983 19.7149 77.7143 18.7869 78.5463 18.0669C79.3783 17.3309 80.5623 16.9629 82.0983 16.9629C83.1383 16.9629 84.0103 17.1549 84.7143 17.5389C85.4343 17.9069 85.9943 18.4029 86.3943 19.0269C86.8103 19.6349 87.0823 20.3069 87.2103 21.0429L85.0983 21.1869C85.0023 20.7389 84.8263 20.3469 84.5703 20.0109C84.3143 19.6589 83.9783 19.3869 83.5623 19.1949C83.1463 18.9869 82.6503 18.8829 82.0743 18.8829C81.1623 18.8829 80.4903 19.0589 80.0583 19.4109C79.6263 19.7629 79.4103 20.2109 79.4103 20.7549C79.4103 21.1709 79.5063 21.5149 79.6983 21.7869C79.9063 22.0429 80.2343 22.2589 80.6823 22.4349C81.1303 22.5949 81.7303 22.7389 82.4823 22.8669C83.7783 23.0909 84.7863 23.3629 85.5063 23.6829C86.2263 24.0029 86.7303 24.3949 87.0183 24.8589C87.3063 25.3229 87.4503 25.8909 87.4503 26.5629C87.4503 27.3469 87.2263 28.0189 86.7783 28.5789C86.3463 29.1229 85.7543 29.5389 85.0023 29.8269C84.2663 30.1149 83.4263 30.2589 82.4823 30.2589Z" fill="black"/>
<path d="M72.2238 29.9712V17.2512H74.2398V29.9712H72.2238ZM72.1758 15.2592V12.9072H74.2878V15.2592H72.1758Z" fill="black"/>
<path d="M56.3867 29.9716V12.9316H62.8427C64.0427 12.9316 65.0747 13.1396 65.9387 13.5556C66.8027 13.9716 67.4667 14.5716 67.9307 15.3556C68.4107 16.1236 68.6507 17.0356 68.6507 18.0916C68.6507 18.8596 68.4667 19.5476 68.0987 20.1556C67.7467 20.7476 67.2907 21.2196 66.7307 21.5716C66.1707 21.9236 65.5867 22.1156 64.9787 22.1476L64.8347 21.9316C65.8747 21.9316 66.6907 22.1716 67.2827 22.6516C67.8907 23.1316 68.2427 23.8996 68.3387 24.9556L68.8187 29.9716H66.7307L66.2987 25.1716C66.2347 24.4676 65.9787 23.9476 65.5307 23.6116C65.0987 23.2756 64.3867 23.1076 63.3947 23.1076H58.4507V29.9716H56.3867ZM58.4507 21.0916H63.1067C64.1467 21.0916 64.9707 20.8276 65.5787 20.2996C66.1867 19.7716 66.4907 19.0196 66.4907 18.0436C66.4907 17.0516 66.1787 16.2916 65.5547 15.7636C64.9307 15.2196 64.0267 14.9476 62.8427 14.9476H58.4507V21.0916Z" fill="black"/>
<path d="M32.1318 29.8945C33.648 29.8945 34.5202 31.5555 33.4805 32.6591C33.1373 33.0234 32.6542 33.2158 32.1538 33.2158H6.59935C6.09879 33.2158 5.61568 33.0233 5.27237 32.6591C4.23237 31.5555 5.10435 29.8945 6.62073 29.8945H32.1318Z" fill="#FF7F49"/>
<path d="M22.6551 38.4753C24.6528 38.1345 24.1918 35.9834 22.1653 35.9834H16.5869C14.5604 35.9834 14.0994 38.1345 16.0971 38.4753C17.163 38.6572 18.2585 38.7519 19.3762 38.752C20.4938 38.7519 21.5893 38.6572 22.6551 38.4753Z" fill="#E65C1C"/>
<path d="M37.5815 26.0215C37.9863 24.9141 37.115 23.8047 35.9359 23.8047H2.81664C1.63743 23.8047 0.766375 24.9141 1.17155 26.0215C1.4215 26.7047 2.08464 27.126 2.81212 27.126H35.9413C36.6687 27.126 37.3318 26.7048 37.5815 26.0215Z" fill="#FEA52D"/>
<path d="M24.5558 2.5289C23.7899 4.37784 21.0371 3.83027 21.0371 1.82896V1.66113C21.0371 0.743714 20.2934 0 19.376 0C18.4586 0 17.7148 0.743714 17.7148 1.66113V1.82972C17.7148 3.83183 14.961 4.37966 14.1947 2.52999L14.1298 2.37332C13.7787 1.52589 12.8071 1.12355 11.9598 1.4747C11.1125 1.82578 10.7102 2.79714 11.0612 3.64443L11.1259 3.80068C11.8919 5.65004 9.55774 7.20974 8.14221 5.79439L8.02298 5.67517C7.37439 5.02666 6.32289 5.0267 5.67434 5.67525C5.02577 6.32382 5.02577 7.37538 5.67434 8.02395L5.79321 8.14282C7.20832 9.55792 5.64899 11.8916 3.80009 11.1257L3.64504 11.0615C2.79745 10.7104 1.82572 11.1129 1.47461 11.9605C1.12349 12.808 1.52595 13.7798 2.37351 14.1309L2.52946 14.1955C4.37868 14.9616 3.83096 17.7148 1.82931 17.7148H1.66064C0.743495 17.7148 0 18.4583 0 19.3755C0 20.2926 0.743495 21.0361 1.66064 21.0361H37.0913C38.0085 21.0361 38.752 20.2926 38.752 19.3755C38.752 18.4583 38.0085 17.7148 37.0913 17.7148H36.9219C34.9201 17.7148 34.3724 14.9614 36.2218 14.1953L36.3776 14.1308C37.225 13.7797 37.6274 12.8081 37.2763 11.9607C36.9252 11.1134 35.9539 10.7111 35.1066 11.062L34.9506 11.1266C33.1013 11.8924 31.542 9.55825 32.9574 8.14304L33.0765 8.02395C33.7251 7.37539 33.7252 6.32378 33.0765 5.67517C32.428 5.02665 31.3766 5.02659 30.728 5.67503L30.6085 5.79445C29.1929 7.20973 26.8588 5.64984 27.625 3.80052L27.6894 3.64501C28.0405 2.79745 27.6381 1.82572 26.7905 1.47461C25.943 1.1235 24.9712 1.52597 24.6202 2.37354L24.5558 2.5289Z" fill="#FFCC12"/>
</svg>
