<svg width="187" height="25" viewBox="0 0 187 25" fill="none" xmlns="http://www.w3.org/2000/svg">
<path d="M175.368 20.7558V3.71582H177.384V14.8758L183.576 8.03582H186.264L181.248 13.4358L186.48 20.7558H184.032L179.88 14.8038L177.384 17.4438V20.7558H175.368Z" fill="black"/>
<path d="M161.657 20.7551V8.03507H163.505L163.577 11.2751L163.337 11.0591C163.497 10.3071 163.777 9.69107 164.177 9.21107C164.577 8.71507 165.057 8.34707 165.617 8.10707C166.193 7.86707 166.809 7.74707 167.465 7.74707C168.441 7.74707 169.241 7.96307 169.865 8.39507C170.505 8.82707 170.977 9.41107 171.281 10.1471C171.601 10.8671 171.761 11.6751 171.761 12.5711V20.7551H169.745V13.1471C169.745 12.3631 169.649 11.7071 169.457 11.1791C169.281 10.6351 168.993 10.2271 168.593 9.95507C168.193 9.66707 167.673 9.52307 167.033 9.52307C166.057 9.52307 165.249 9.83507 164.609 10.4591C163.985 11.0671 163.673 11.9631 163.673 13.1471V20.7551H161.657Z" fill="black"/>
<path d="M151.965 21.0431C150.653 21.0431 149.605 20.7391 148.821 20.1311C148.053 19.5231 147.669 18.6751 147.669 17.5871C147.669 16.4991 147.989 15.6431 148.629 15.0191C149.269 14.3951 150.285 13.9551 151.677 13.6991L156.189 12.8591C156.189 11.7871 155.933 10.9871 155.421 10.4591C154.925 9.93107 154.173 9.66707 153.165 9.66707C152.285 9.66707 151.589 9.86707 151.077 10.2671C150.565 10.6511 150.213 11.2111 150.021 11.9471L147.885 11.7791C148.125 10.5791 148.701 9.61107 149.613 8.87507C150.541 8.12307 151.725 7.74707 153.165 7.74707C154.797 7.74707 156.045 8.21107 156.909 9.13907C157.773 10.0511 158.205 11.3151 158.205 12.9311V18.1871C158.205 18.4751 158.253 18.6831 158.349 18.8111C158.461 18.9231 158.637 18.9791 158.877 18.9791H159.381V20.7551C159.317 20.7711 159.213 20.7791 159.069 20.7791C158.925 20.7951 158.773 20.8031 158.613 20.8031C158.037 20.8031 157.565 20.7151 157.197 20.5391C156.845 20.3471 156.589 20.0591 156.429 19.6751C156.269 19.2751 156.189 18.7551 156.189 18.1151L156.429 18.1631C156.317 18.7071 156.045 19.2031 155.613 19.6511C155.181 20.0831 154.645 20.4271 154.005 20.6831C153.365 20.9231 152.685 21.0431 151.965 21.0431ZM152.157 19.2671C153.005 19.2671 153.725 19.1071 154.317 18.7871C154.925 18.4511 155.389 18.0031 155.709 17.4431C156.029 16.8671 156.189 16.2271 156.189 15.5231V14.6111L152.061 15.3791C151.197 15.5391 150.597 15.7871 150.261 16.1231C149.941 16.4431 149.781 16.8671 149.781 17.3951C149.781 17.9871 149.989 18.4511 150.405 18.7871C150.837 19.1071 151.421 19.2671 152.157 19.2671Z" fill="black"/>
<path d="M132.788 20.7558V3.71582H139.244C140.444 3.71582 141.476 3.92382 142.34 4.33982C143.204 4.75582 143.868 5.35582 144.332 6.13982C144.812 6.90782 145.052 7.81982 145.052 8.87582C145.052 9.64382 144.868 10.3318 144.5 10.9398C144.148 11.5318 143.692 12.0038 143.132 12.3558C142.572 12.7078 141.988 12.8998 141.38 12.9318L141.236 12.7158C142.276 12.7158 143.092 12.9558 143.684 13.4358C144.292 13.9158 144.644 14.6838 144.74 15.7398L145.22 20.7558H143.132L142.7 15.9558C142.636 15.2518 142.38 14.7318 141.932 14.3958C141.5 14.0598 140.788 13.8918 139.796 13.8918H134.852V20.7558H132.788ZM134.852 11.8758H139.508C140.548 11.8758 141.372 11.6118 141.98 11.0838C142.588 10.5558 142.892 9.80382 142.892 8.82782C142.892 7.83582 142.58 7.07582 141.956 6.54782C141.332 6.00382 140.428 5.73182 139.244 5.73182H134.852V11.8758Z" fill="black"/>
<path d="M116.74 21.0438C115.636 21.0438 114.676 20.7718 113.86 20.2278C113.06 19.6838 112.444 18.9158 112.012 17.9238C111.58 16.9318 111.364 15.7558 111.364 14.3958C111.364 13.0358 111.58 11.8598 112.012 10.8678C112.444 9.87582 113.06 9.10782 113.86 8.56382C114.676 8.01982 115.636 7.74782 116.74 7.74782C117.588 7.74782 118.364 7.93182 119.068 8.29982C119.772 8.65182 120.3 9.15582 120.652 9.81182V3.71582H122.668V20.7558H120.844L120.772 18.8358C120.42 19.5238 119.884 20.0678 119.164 20.4678C118.444 20.8518 117.636 21.0438 116.74 21.0438ZM117.148 19.1238C117.9 19.1238 118.532 18.9318 119.044 18.5478C119.572 18.1638 119.972 17.6198 120.244 16.9158C120.516 16.1958 120.652 15.3558 120.652 14.3958C120.652 13.4038 120.516 12.5558 120.244 11.8518C119.972 11.1478 119.572 10.6118 119.044 10.2438C118.532 9.85982 117.9 9.66782 117.148 9.66782C116.028 9.66782 115.132 10.0918 114.46 10.9398C113.804 11.7718 113.476 12.9238 113.476 14.3958C113.476 15.8518 113.804 17.0038 114.46 17.8518C115.132 18.6998 116.028 19.1238 117.148 19.1238Z" fill="black"/>
<path d="M98.563 20.7551V8.03507H100.411L100.483 11.2751L100.243 11.0591C100.403 10.3071 100.683 9.69107 101.083 9.21107C101.483 8.71507 101.963 8.34707 102.523 8.10707C103.099 7.86707 103.715 7.74707 104.371 7.74707C105.347 7.74707 106.147 7.96307 106.771 8.39507C107.411 8.82707 107.883 9.41107 108.187 10.1471C108.507 10.8671 108.667 11.6751 108.667 12.5711V20.7551H106.651V13.1471C106.651 12.3631 106.555 11.7071 106.363 11.1791C106.187 10.6351 105.899 10.2271 105.499 9.95507C105.099 9.66707 104.579 9.52307 103.939 9.52307C102.963 9.52307 102.155 9.83507 101.515 10.4591C100.891 11.0671 100.579 11.9631 100.579 13.1471V20.7551H98.563Z" fill="black"/>
<path d="M88.8712 21.0431C87.5592 21.0431 86.5112 20.7391 85.7272 20.1311C84.9592 19.5231 84.5752 18.6751 84.5752 17.5871C84.5752 16.4991 84.8952 15.6431 85.5352 15.0191C86.1752 14.3951 87.1912 13.9551 88.5832 13.6991L93.0952 12.8591C93.0952 11.7871 92.8392 10.9871 92.3272 10.4591C91.8312 9.93107 91.0792 9.66707 90.0712 9.66707C89.1912 9.66707 88.4952 9.86707 87.9832 10.2671C87.4712 10.6511 87.1192 11.2111 86.9272 11.9471L84.7912 11.7791C85.0312 10.5791 85.6072 9.61107 86.5192 8.87507C87.4472 8.12307 88.6312 7.74707 90.0712 7.74707C91.7032 7.74707 92.9512 8.21107 93.8152 9.13907C94.6792 10.0511 95.1112 11.3151 95.1112 12.9311V18.1871C95.1112 18.4751 95.1592 18.6831 95.2552 18.8111C95.3672 18.9231 95.5432 18.9791 95.7832 18.9791H96.2872V20.7551C96.2232 20.7711 96.1192 20.7791 95.9752 20.7791C95.8312 20.7951 95.6792 20.8031 95.5192 20.8031C94.9432 20.8031 94.4712 20.7151 94.1032 20.5391C93.7512 20.3471 93.4952 20.0591 93.3352 19.6751C93.1752 19.2751 93.0952 18.7551 93.0952 18.1151L93.3352 18.1631C93.2232 18.7071 92.9512 19.2031 92.5192 19.6511C92.0872 20.0831 91.5512 20.4271 90.9112 20.6831C90.2712 20.9231 89.5912 21.0431 88.8712 21.0431ZM89.0632 19.2671C89.9112 19.2671 90.6312 19.1071 91.2232 18.7871C91.8312 18.4511 92.2952 18.0031 92.6152 17.4431C92.9352 16.8671 93.0952 16.2271 93.0952 15.5231V14.6111L88.9672 15.3791C88.1032 15.5391 87.5032 15.7871 87.1672 16.1231C86.8472 16.4431 86.6872 16.8671 86.6872 17.3951C86.6872 17.9871 86.8952 18.4511 87.3112 18.7871C87.7432 19.1071 88.3272 19.2671 89.0632 19.2671Z" fill="black"/>
<path d="M70.9541 21.0431C69.7541 21.0431 68.7141 20.7711 67.8341 20.2271C66.9701 19.6831 66.2981 18.9151 65.8181 17.9231C65.3541 16.9151 65.1221 15.7391 65.1221 14.3951C65.1221 13.0511 65.3541 11.8831 65.8181 10.8911C66.2981 9.89907 66.9621 9.13107 67.8101 8.58707C68.6741 8.02707 69.6901 7.74707 70.8581 7.74707C71.9621 7.74707 72.9381 8.01107 73.7861 8.53907C74.6341 9.05107 75.2901 9.80307 75.7541 10.7951C76.2342 11.7871 76.4742 12.9951 76.4742 14.4191V15.0191H67.2341C67.3141 16.3791 67.6741 17.4031 68.3141 18.0911C68.9701 18.7791 69.8501 19.1231 70.9541 19.1231C71.7861 19.1231 72.4661 18.9311 72.9941 18.5471C73.5381 18.1471 73.9141 17.6271 74.1221 16.9871L76.2822 17.1551C75.9462 18.2911 75.3061 19.2271 74.3621 19.9631C73.4341 20.6831 72.2981 21.0431 70.9541 21.0431ZM67.2341 13.2431H74.2661C74.1701 12.0111 73.8101 11.1071 73.1861 10.5311C72.5781 9.95507 71.8021 9.66707 70.8581 9.66707C69.8821 9.66707 69.0741 9.97107 68.4341 10.5791C67.8101 11.1711 67.4101 12.0591 67.2341 13.2431Z" fill="black"/>
<path d="M58.2665 21.0431C57.1305 21.0431 56.1625 20.8591 55.3625 20.4911C54.5785 20.1231 53.9625 19.6191 53.5145 18.9791C53.0825 18.3231 52.8345 17.5791 52.7705 16.7471L54.8825 16.6031C55.0105 17.3711 55.3385 17.9871 55.8665 18.4511C56.3945 18.8991 57.1945 19.1231 58.2665 19.1231C59.1305 19.1231 59.8185 18.9871 60.3305 18.7151C60.8585 18.4271 61.1225 17.9711 61.1225 17.3471C61.1225 17.0111 61.0425 16.7311 60.8825 16.5071C60.7225 16.2831 60.4105 16.0911 59.9465 15.9311C59.4825 15.7551 58.7945 15.5871 57.8825 15.4271C56.6665 15.2031 55.7065 14.9311 55.0025 14.6111C54.3145 14.2751 53.8185 13.8671 53.5145 13.3871C53.2265 12.8911 53.0825 12.3071 53.0825 11.6351C53.0825 10.4991 53.4985 9.57107 54.3305 8.85107C55.1625 8.11507 56.3465 7.74707 57.8825 7.74707C58.9225 7.74707 59.7945 7.93907 60.4985 8.32307C61.2185 8.69107 61.7785 9.18707 62.1785 9.81107C62.5945 10.4191 62.8665 11.0911 62.9945 11.8271L60.8825 11.9711C60.7865 11.5231 60.6105 11.1311 60.3545 10.7951C60.0985 10.4431 59.7625 10.1711 59.3465 9.97907C58.9305 9.77107 58.4345 9.66707 57.8585 9.66707C56.9465 9.66707 56.2745 9.84307 55.8425 10.1951C55.4105 10.5471 55.1945 10.9951 55.1945 11.5391C55.1945 11.9551 55.2905 12.2991 55.4825 12.5711C55.6905 12.8271 56.0185 13.0431 56.4665 13.2191C56.9145 13.3791 57.5145 13.5231 58.2665 13.6511C59.5625 13.8751 60.5705 14.1471 61.2905 14.4671C62.0105 14.7871 62.5145 15.1791 62.8025 15.6431C63.0905 16.1071 63.2345 16.6751 63.2345 17.3471C63.2345 18.1311 63.0105 18.8031 62.5625 19.3631C62.1305 19.9071 61.5385 20.3231 60.7865 20.6111C60.0505 20.8991 59.2105 21.0431 58.2665 21.0431Z" fill="black"/>
<path d="M48.008 20.7554V8.03541H50.024V20.7554H48.008ZM47.96 6.04341V3.69141H50.072V6.04341H47.96Z" fill="black"/>
<path d="M32.1709 20.7558V3.71582H38.6269C39.8269 3.71582 40.8589 3.92382 41.7229 4.33982C42.5869 4.75582 43.2509 5.35582 43.7149 6.13982C44.1949 6.90782 44.4349 7.81982 44.4349 8.87582C44.4349 9.64382 44.2509 10.3318 43.8829 10.9398C43.5309 11.5318 43.0749 12.0038 42.5149 12.3558C41.9549 12.7078 41.3709 12.8998 40.7629 12.9318L40.6189 12.7158C41.6589 12.7158 42.4749 12.9558 43.0669 13.4358C43.6749 13.9158 44.0269 14.6838 44.1229 15.7398L44.6029 20.7558H42.5149L42.0829 15.9558C42.0189 15.2518 41.7629 14.7318 41.3149 14.3958C40.8829 14.0598 40.1709 13.8918 39.1789 13.8918H34.2349V20.7558H32.1709ZM34.2349 11.8758H38.8909C39.9309 11.8758 40.7549 11.6118 41.3629 11.0838C41.9709 10.5558 42.2749 9.80382 42.2749 8.82782C42.2749 7.83582 41.9629 7.07582 41.3389 6.54782C40.7149 6.00382 39.8109 5.73182 38.6269 5.73182H34.2349V11.8758Z" fill="black"/>
<path d="M20.1656 18.7617C21.1171 18.7617 21.6645 19.8041 21.012 20.4967C20.7966 20.7254 20.4934 20.8461 20.1794 20.8461H4.14166C3.82751 20.8461 3.52432 20.7253 3.30886 20.4967C2.65617 19.8041 3.20341 18.7617 4.15507 18.7617H20.1656Z" fill="#FF7F49"/>
<path d="M14.2181 24.1469C15.4718 23.933 15.1825 22.583 13.9107 22.583H10.4098C9.13797 22.583 8.84865 23.933 10.1024 24.1469C10.7713 24.2611 11.4589 24.3205 12.1603 24.3206C12.8617 24.3205 13.5492 24.2611 14.2181 24.1469Z" fill="#E65C1C"/>
<path d="M23.5856 16.3307C23.8396 15.6357 23.2928 14.9395 22.5528 14.9395H1.76755C1.02749 14.9395 0.48082 15.6357 0.735101 16.3307C0.891973 16.7595 1.30815 17.0239 1.76471 17.0239H22.5562C23.0127 17.0239 23.4289 16.7595 23.5856 16.3307Z" fill="#FEA52D"/>
<path d="M15.4109 1.58711C14.9303 2.74749 13.2026 2.40383 13.2026 1.14783V1.04251C13.2026 0.466747 12.7359 0 12.1602 0C11.5844 0 11.1176 0.466747 11.1176 1.04251V1.14831C11.1176 2.40481 9.38935 2.74863 8.90843 1.58779L8.8677 1.48947C8.64736 0.957631 8.03759 0.705127 7.50583 0.925505C6.97408 1.14584 6.7216 1.75545 6.94188 2.2872L6.98249 2.38526C7.46322 3.54591 5.99833 4.52476 5.10996 3.6365L5.03514 3.56168C4.62809 3.15468 3.96818 3.15471 3.56116 3.56173C3.15412 3.96876 3.15412 4.62871 3.56116 5.03575L3.63576 5.11035C4.52387 5.99845 3.54525 7.46303 2.38489 6.98236L2.28759 6.94207C1.75565 6.72172 1.1458 6.97433 0.925448 7.50627C0.70509 8.03815 0.957669 8.64805 1.48959 8.86839L1.58746 8.90893C2.74802 9.38973 2.40427 11.1176 1.14805 11.1176H1.0422C0.46661 11.1176 0 11.5842 0 12.1598C0 12.7354 0.46661 13.202 1.0422 13.202H23.2781C23.8537 13.202 24.3203 12.7354 24.3203 12.1598C24.3203 11.5842 23.8537 11.1176 23.2781 11.1176H23.1718C21.9155 11.1176 21.5717 9.3896 22.7324 8.90881L22.8302 8.86833C23.362 8.64798 23.6145 8.03822 23.3942 7.5064C23.1738 6.97464 22.5643 6.72216 22.0325 6.94239L21.9346 6.98293C20.774 7.46353 19.7954 5.99866 20.6837 5.11049L20.7584 5.03575C21.1655 4.62872 21.1656 3.96874 20.7584 3.56168C20.3514 3.15467 19.6916 3.15464 19.2845 3.56159L19.2095 3.63654C18.3211 4.52475 16.8563 3.54578 17.3371 2.38516L17.3776 2.28757C17.5979 1.75565 17.3454 1.1458 16.8134 0.925448C16.2815 0.705096 15.6716 0.957681 15.4514 1.48961L15.4109 1.58711Z" fill="#FFCC12"/>
</svg>
