<svg width="141" height="48" viewBox="0 0 141 48" fill="none" xmlns="http://www.w3.org/2000/svg">
<g clip-path="url(#clip0_196_1023)">
<path d="M21.2728 3.07812C9.6749 3.07812 0.272461 12.4803 0.272461 24.0783C0.272461 35.6767 9.6749 45.0781 21.2728 45.0781C32.872 45.0781 42.2735 35.6767 42.2735 24.0783C42.2735 12.4811 32.872 3.07913 21.2726 3.07913L21.2728 3.07812V3.07812ZM30.9035 33.3663C30.5273 33.9832 29.7198 34.1788 29.1029 33.8002C24.1723 30.7884 17.9652 30.1063 10.6552 31.7764C9.95075 31.9369 9.24859 31.4956 9.08809 30.7909C8.92685 30.0862 9.36645 29.3841 10.0726 29.2236C18.0722 27.396 24.9341 28.1829 30.4697 31.5658C31.0865 31.9445 31.2822 32.7494 30.9035 33.3663V33.3663ZM33.4739 27.6482C32.9999 28.4186 31.9918 28.6619 31.222 28.1879C25.5771 24.7182 16.9724 23.7134 10.2956 25.7401C9.42965 26.0017 8.51508 25.5137 8.25227 24.6493C7.99147 23.7833 8.47972 22.8705 9.34413 22.6072C16.9709 20.2931 26.4523 21.4141 32.9347 25.3976C33.7046 25.8715 33.9479 26.8796 33.4739 27.6485V27.6482ZM33.6946 21.6939C26.9262 17.6738 15.7594 17.3042 9.29724 19.2654C8.25954 19.5802 7.16217 18.9944 6.8477 17.9567C6.53323 16.9185 7.11853 15.8218 8.15698 15.5064C15.5751 13.2544 27.9068 13.6895 35.6992 18.3155C36.6346 18.8695 36.9406 20.0749 36.3864 21.0071C35.8347 21.9404 34.6259 22.2481 33.6956 21.6939H33.6946ZM57.4076 22.4643C53.7814 21.5996 53.1369 20.9928 53.1369 19.7176C53.1369 18.5129 54.2704 17.7021 55.9581 17.7021C57.5931 17.7021 59.2131 18.3178 60.9134 19.5852C60.9635 19.6235 61.0287 19.6388 61.0914 19.6288C61.1566 19.6193 61.2118 19.5844 61.2494 19.532L63.0198 17.0363C63.0926 16.9335 63.0725 16.7918 62.9747 16.7133C60.951 15.0901 58.674 14.3009 56.0108 14.3009C52.0962 14.3009 49.3603 16.6504 49.3603 20.012C49.3603 23.6168 51.7201 24.8933 55.7976 25.8785C59.2658 26.6778 59.8526 27.3473 59.8526 28.544C59.8526 29.8706 58.6689 30.6956 56.7631 30.6956C54.6466 30.6956 52.9187 29.9809 50.9878 28.3108C50.9402 28.2681 50.875 28.2506 50.8148 28.2531C50.7496 28.2581 50.6919 28.2882 50.6518 28.3359L48.6657 30.6981C48.5829 30.7984 48.5929 30.9439 48.6882 31.0291C50.9351 33.0353 53.6986 34.0936 56.6828 34.0936C60.9008 34.0936 63.6267 31.789 63.6267 28.2205C63.6342 25.2095 61.8312 23.5419 57.4151 22.4675L57.4076 22.4643V22.4643ZM73.1711 18.8883C71.343 18.8883 69.8433 19.6085 68.6045 21.0843V19.4232C68.6045 19.292 68.4992 19.1852 68.3688 19.1852H65.1213C64.9909 19.1852 64.8856 19.292 64.8856 19.4232V37.8802C64.8856 38.0106 64.9909 38.1185 65.1213 38.1185H68.3688C68.4992 38.1185 68.6045 38.0106 68.6045 37.8802V32.0548C69.8433 33.4416 71.343 34.1212 73.1711 34.1212C76.569 34.1212 80.0096 31.5056 80.0096 26.5055C80.0146 21.5043 76.5741 18.888 73.1736 18.888L73.1711 18.8883ZM76.233 26.5055C76.233 29.0506 74.6657 30.8285 72.4188 30.8285C70.1994 30.8285 68.5243 28.9703 68.5243 26.5055C68.5243 24.0404 70.1994 22.1827 72.4188 22.1827C74.6281 22.1824 76.233 24 76.233 26.5052V26.5055ZM88.8243 18.8883C84.4483 18.8883 81.0202 22.2576 81.0202 26.5599C81.0202 30.816 84.4257 34.1487 88.7716 34.1487C93.1626 34.1487 96.6007 30.7909 96.6007 26.5055C96.6007 22.2346 93.1852 18.8888 88.8243 18.8888V18.8883V18.8883ZM88.8243 30.8536C86.4971 30.8536 84.7417 28.9828 84.7417 26.5042C84.7417 24.0143 86.4369 22.2075 88.7716 22.2075C91.1138 22.2075 92.8792 24.0775 92.8792 26.5586C92.8792 29.048 91.174 30.8536 88.8243 30.8536V30.8536ZM105.944 19.1852H102.371V15.5325C102.371 15.4015 102.266 15.2947 102.135 15.2947H98.8877C98.7573 15.2947 98.6495 15.4015 98.6495 15.5325V19.1852H97.0897C96.9593 19.1852 96.854 19.292 96.854 19.4232V22.2135C96.854 22.3444 96.9593 22.4515 97.0897 22.4515H98.6495V29.6725C98.6495 32.5889 100.101 34.0685 102.968 34.0685C104.131 34.0685 105.097 33.8278 106.007 33.3112C106.082 33.271 106.128 33.1908 106.128 33.1055V30.4474C106.128 30.3671 106.085 30.2894 106.015 30.2467C105.944 30.2016 105.857 30.1991 105.784 30.2367C105.16 30.5502 104.555 30.6956 103.878 30.6956C102.837 30.6956 102.371 30.2217 102.371 29.1634V22.4527H105.944C106.075 22.4527 106.18 22.3459 106.18 22.2148V19.4247C106.185 19.2935 106.08 19.1867 105.947 19.1867L105.944 19.1852V19.1852ZM118.393 19.1995V18.7509C118.393 17.431 118.899 16.8425 120.033 16.8425C120.71 16.8425 121.254 16.9769 121.863 17.18C121.939 17.2036 122.016 17.1918 122.077 17.1469C122.139 17.102 122.174 17.0301 122.174 16.9538V14.2179C122.174 14.1133 122.109 14.0208 122.006 13.99C121.364 13.7986 120.542 13.6023 119.308 13.6023C116.311 13.6023 114.724 15.291 114.724 18.484V19.1711H113.164C113.034 19.1711 112.926 19.278 112.926 19.4089V22.2135C112.926 22.3444 113.034 22.4515 113.164 22.4515H114.724V33.587C114.724 33.7199 114.832 33.8252 114.962 33.8252H118.207C118.34 33.8252 118.445 33.7199 118.445 33.587V22.4522H121.477L126.122 33.587C125.595 34.7556 125.076 34.9888 124.369 34.9888C123.797 34.9888 123.193 34.8183 122.578 34.4798C122.52 34.4497 122.45 34.4447 122.39 34.4622C122.327 34.4848 122.275 34.5299 122.25 34.5901L121.149 37.005C121.096 37.1204 121.141 37.2533 121.252 37.3135C122.4 37.9354 123.436 38.2012 124.717 38.2012C127.115 38.2012 128.441 37.0828 129.607 34.0785L135.24 19.5245C135.27 19.4513 135.26 19.3685 135.215 19.3036C135.172 19.2391 135.099 19.2002 135.021 19.2002H131.641C131.538 19.2002 131.448 19.2647 131.415 19.3597L127.952 29.2487L124.161 19.3532C124.125 19.2612 124.038 19.2002 123.94 19.2002H118.393V19.1995V19.1995ZM111.176 19.1852H107.928C107.798 19.1852 107.69 19.292 107.69 19.4232V33.587C107.69 33.7199 107.798 33.8252 107.928 33.8252H111.176C111.306 33.8252 111.414 33.7199 111.414 33.587V19.4242C111.414 19.293 111.308 19.1862 111.176 19.1862V19.1852ZM109.571 12.7356C108.284 12.7356 107.241 13.7768 107.241 15.063C107.241 16.35 108.284 17.3924 109.571 17.3924C110.857 17.3924 111.898 16.35 111.898 15.063C111.898 13.7771 110.855 12.7356 109.571 12.7356ZM138.013 23.7395C136.729 23.7395 135.729 22.7075 135.729 21.4544C135.729 20.2013 136.742 19.1576 138.026 19.1576C139.31 19.1576 140.31 20.1893 140.31 21.4414C140.31 22.6945 139.297 23.7395 138.013 23.7395ZM138.026 19.3848C136.855 19.3848 135.969 20.3152 135.969 21.4544C135.969 22.5932 136.85 23.511 138.013 23.511C139.184 23.511 140.069 22.5814 140.069 21.4414C140.069 20.3026 139.189 19.3848 138.026 19.3848V19.3848ZM138.532 21.6764L139.179 22.5811H138.633L138.051 21.7511H137.552V22.5811H137.095V20.1828H138.164C138.723 20.1828 139.089 20.4679 139.089 20.9479C139.091 21.3411 138.863 21.5813 138.535 21.6764H138.532ZM138.146 20.5943H137.552V21.3529H138.146C138.442 21.3529 138.62 21.2077 138.62 20.9732C138.62 20.7264 138.442 20.5943 138.146 20.5943V20.5943Z" fill="#7E829B"/>
</g>
<defs>
<clipPath id="clip0_196_1023">
<rect width="140" height="48" fill="white" transform="translate(0.200195)"/>
</clipPath>
</defs>
</svg>
