<svg width="164" height="48" viewBox="0 0 164 48" fill="none" xmlns="http://www.w3.org/2000/svg">
<g clip-path="url(#clip0_196_1025)">
<path d="M45.6504 14.0126H53.2725C58.1318 14.0126 62.1461 16.8242 62.1461 23.2437V24.5926C62.1461 31.0609 58.3919 33.9699 53.4188 33.9699H45.6504V14.0126ZM49.9084 17.6368V30.3295H53.175C55.9378 30.3295 57.7906 28.5256 57.7906 24.5113V23.455C57.7906 19.4407 55.8403 17.6368 53.0288 17.6368H49.9084ZM64.4051 17.8318H67.818L68.3706 21.586C69.0206 19.0344 70.6783 17.6693 73.6849 17.6693H74.7413V21.976H72.9861C69.5244 21.976 68.6793 23.1787 68.6793 26.5916V34.0187H64.4701V17.8318H64.4051ZM75.5864 26.2503V25.7952C75.5864 20.3834 79.0481 17.4255 83.7611 17.4255C88.5717 17.4255 91.9358 20.3834 91.9358 25.7952V26.2503C91.9358 31.5647 88.6692 34.425 83.7611 34.425C78.5442 34.3762 75.5864 31.5809 75.5864 26.2503ZM87.6291 26.2015V25.7952C87.6291 22.7886 86.1176 20.9847 83.7123 20.9847C81.3558 20.9847 79.7956 22.6424 79.7956 25.7952V26.2015C79.7956 29.1106 81.3071 30.7683 83.7123 30.7683C86.1176 30.7196 87.6291 29.1106 87.6291 26.2015ZM94.1461 17.8318H97.6565L98.0628 20.8872C98.9079 18.8394 100.712 17.4255 103.377 17.4255C107.489 17.4255 110.203 20.3834 110.203 25.8602V26.3153C110.203 31.6297 107.196 34.4412 103.377 34.4412C100.826 34.4412 99.0704 33.2874 98.209 31.4346V39.6094H94.0973L94.1461 17.8318ZM105.929 26.2015V25.844C105.929 22.6261 104.271 21.0334 102.061 21.0334C99.7042 21.0334 98.144 22.8374 98.144 25.844V26.1528C98.144 29.0131 99.6555 30.8171 102.012 30.8171C104.434 30.7683 105.929 29.2244 105.929 26.2015ZM116.427 31.0283L116.07 33.9862H112.462V12.4199H116.574V20.6921C117.484 18.5794 119.288 17.4255 121.839 17.4255C125.707 17.4743 128.568 20.1396 128.568 25.5027V26.0065C128.568 31.3696 125.854 34.4412 121.742 34.4412C119.028 34.3762 117.273 33.1248 116.427 31.0283ZM124.245 26.0065V25.6002C124.245 22.6424 122.636 20.9847 120.377 20.9847C118.069 20.9847 116.46 22.8374 116.46 25.649V26.0065C116.46 29.0131 118.02 30.7683 120.328 30.7683C122.798 30.7683 124.245 29.2244 124.245 26.0065ZM130.372 26.2503V25.7952C130.372 20.3834 133.833 17.4255 138.546 17.4255C143.357 17.4255 146.721 20.3834 146.721 25.7952V26.2503C146.721 31.5647 143.406 34.425 138.546 34.425C133.329 34.3762 130.372 31.5809 130.372 26.2503ZM142.447 26.2015V25.7952C142.447 22.7886 140.935 20.9847 138.53 20.9847C136.174 20.9847 134.613 22.6424 134.613 25.7952V26.2015C134.613 29.1106 136.125 30.7683 138.53 30.7683C140.952 30.7196 142.447 29.1106 142.447 26.2015ZM152.23 25.6002L146.558 17.8318H151.418L154.684 22.6911L158 17.8318H162.81L157.057 25.5515L163.119 33.9862H158.357L154.652 28.6231L151.044 33.9862H146.071L152.23 25.6002Z" fill="#7E829B"/>
<path d="M19.4523 14.0132L10.0262 20.0264L19.4523 26.0396L10.0262 32.0528L0.600098 26.0071L10.0262 19.9939L0.600098 14.0132L10.0262 8L19.4523 14.0132ZM9.97745 33.9868L19.4036 27.9736L28.8297 33.9868L19.4036 40L9.97745 33.9868ZM19.4523 26.0071L28.8784 19.9939L19.4523 14.0132L28.8297 8L38.2558 14.0132L28.8297 20.0264L38.2558 26.0396L28.8297 32.0528L19.4523 26.0071Z" fill="#7E829B"/>
</g>
<defs>
<clipPath id="clip0_196_1025">
<rect width="163" height="48" fill="white" transform="translate(0.600098)"/>
</clipPath>
</defs>
</svg>
