<svg width="122" height="48" viewBox="0 0 122 48" fill="none" xmlns="http://www.w3.org/2000/svg">
<g clip-path="url(#clip0_196_1024)">
<path d="M38.3252 32.4265L39.7933 28.995C41.4008 30.1854 43.4975 30.8155 45.5946 30.8155C47.1324 30.8155 48.1108 30.2205 48.1108 29.3103C48.0757 26.7891 38.8495 28.7499 38.7793 22.4113C38.7442 19.1898 41.6103 16.7037 45.6648 16.7037C48.0757 16.7037 50.4877 17.2992 52.1999 18.665L50.828 22.1697C49.2526 21.1567 47.3068 20.4504 45.4548 20.4504C44.1967 20.4504 43.3576 21.0454 43.3576 21.8163C43.3927 24.3024 52.6896 22.9366 52.7944 28.995C52.7944 32.2866 49.998 34.5978 46.0137 34.5978C43.0784 34.5978 40.3873 33.8976 38.3247 32.4265H38.3252ZM96.7832 27.7524C96.4127 28.4109 95.8736 28.9589 95.2214 29.3403C94.5691 29.7217 93.8272 29.9227 93.0716 29.9228C90.7168 29.9228 88.8081 28.0101 88.8081 25.6508C88.8081 23.2914 90.7168 21.3787 93.0716 21.3787C93.8272 21.3788 94.5691 21.5798 95.2214 21.9612C95.8736 22.3426 96.4127 22.8906 96.7832 23.5491L100.865 21.2835C99.336 18.5513 96.4198 16.7037 93.0716 16.7037C88.1399 16.7037 84.1421 20.7091 84.1421 25.6508C84.1421 30.5919 88.1399 34.5978 93.0716 34.5978C96.4198 34.5978 99.336 32.7502 100.865 30.018L96.7832 27.7524ZM55.4429 34.2474H60.5455V9.25586H55.4434L55.4429 34.2474ZM103.442 9.25586V34.2474H108.544V26.76L114.591 34.2474H121.113L113.424 25.3525L120.553 17.0526H114.311L108.544 23.9531V9.25586H103.442ZM76.2657 17.0536V19.0851C75.4271 17.6841 73.365 16.7037 71.1982 16.7037C66.7247 16.7037 63.195 20.661 63.195 25.6332C63.195 30.6055 66.7247 34.5978 71.1982 34.5978C73.365 34.5978 75.4271 33.6174 76.2657 32.2164V34.2474H81.3683V17.0536H76.2657ZM76.2657 27.787C75.5319 29.0125 73.9941 29.9223 72.2819 29.9223C69.9266 29.9223 68.0179 28.0101 68.0179 25.6508C68.0179 23.2914 69.9266 21.3787 72.2819 21.3787C73.9941 21.3787 75.5319 22.3241 76.2657 23.5842V27.787Z" fill="#7E829B"/>
<path d="M11.3784 8.70312C9.72487 8.70312 8.38456 10.0464 8.38456 11.703C8.38417 12.0966 8.46129 12.4864 8.61154 12.8501C8.76178 13.2139 8.9822 13.5444 9.2602 13.823C9.53821 14.1016 9.86836 14.3227 10.2318 14.4736C10.5953 14.6246 10.9849 14.7025 11.3784 14.7029H14.3728V11.703C14.3735 10.9081 14.0584 10.1456 13.4969 9.58299C12.9353 9.02041 12.1733 8.70392 11.3784 8.70312V8.70312ZM11.3784 16.7028H3.39427C1.74069 16.7028 0.400391 18.0461 0.400391 19.7032C0.400391 21.3598 1.74069 22.7031 3.39427 22.7031H11.3789C13.032 22.7031 14.3728 21.3598 14.3728 19.7032C14.3728 18.0461 13.032 16.7028 11.3784 16.7028" fill="#7E829B"/>
<path d="M30.3411 19.7032C30.3411 18.0461 29.0003 16.7028 27.3467 16.7028C25.6931 16.7028 24.3528 18.0461 24.3528 19.7032V22.7031H27.3467C28.1416 22.7023 28.9036 22.3858 29.4651 21.8233C30.0267 21.2607 30.3417 20.4981 30.3411 19.7032V19.7032ZM22.3569 19.7032V11.703C22.3576 10.9081 22.0425 10.1456 21.4809 9.58299C20.9194 9.02041 20.1574 8.70392 19.3625 8.70312C17.709 8.70312 16.3687 10.0464 16.3687 11.703V19.7027C16.3687 21.3603 17.709 22.7036 19.3625 22.7036C20.1574 22.7028 20.9194 22.3863 21.4809 21.8238C22.0425 21.2612 22.3576 20.4986 22.3569 19.7037" fill="#7E829B"/>
<path d="M19.3625 38.7031C20.1574 38.7023 20.9194 38.3858 21.4809 37.8233C22.0425 37.2607 22.3576 36.4981 22.3569 35.7032C22.3576 34.9084 22.0425 34.1458 21.4809 33.5832C20.9194 33.0206 20.1574 32.7041 19.3625 32.7033H16.3687V35.7032C16.3687 37.3598 17.709 38.7031 19.3625 38.7031ZM19.3625 30.7034H27.3472C29.0003 30.7034 30.3411 29.3601 30.3411 27.703C30.3417 26.9081 30.0267 26.1456 29.4651 25.583C28.9036 25.0204 28.1416 24.7039 27.3467 24.7031H19.3625C17.709 24.7031 16.3687 26.0464 16.3687 27.703C16.3683 28.0966 16.4454 28.4864 16.5956 28.8501C16.7459 29.2139 16.9663 29.5444 17.2443 29.823C17.5223 30.1016 17.8525 30.3227 18.2159 30.4736C18.5793 30.6246 18.969 30.7025 19.3625 30.7029" fill="#7E829B"/>
<path d="M0.399904 27.703C0.399509 28.0966 0.476634 28.4864 0.626877 28.8501C0.777119 29.2139 0.997537 29.5444 1.27554 29.823C1.55355 30.1016 1.8837 30.3227 2.24715 30.4736C2.6106 30.6246 3.00022 30.7025 3.39378 30.7029C4.18865 30.7021 4.95065 30.3856 5.51219 29.823C6.07373 29.2605 6.38882 28.4979 6.38816 27.703V24.7031H3.39378C1.74021 24.7031 0.399904 26.0464 0.399904 27.703V27.703ZM8.38408 27.703V35.7027C8.38408 37.3598 9.72438 38.7031 11.378 38.7031C12.1728 38.7023 12.9348 38.3858 13.4964 37.8233C14.0579 37.2607 14.373 36.4981 14.3723 35.7032V27.703C14.3727 27.3094 14.2956 26.9196 14.1453 26.5558C13.995 26.192 13.7746 25.8614 13.4965 25.5828C13.2185 25.3043 12.8882 25.0832 12.5247 24.9323C12.1612 24.7813 11.7716 24.7035 11.378 24.7031C9.72438 24.7031 8.38408 26.0464 8.38408 27.703Z" fill="#7E829B"/>
</g>
<defs>
<clipPath id="clip0_196_1024">
<rect width="121" height="48" fill="white" transform="translate(0.399902)"/>
</clipPath>
</defs>
</svg>
