<svg width="24" height="24" viewBox="0 0 24 24" fill="none" xmlns="http://www.w3.org/2000/svg">
<rect width="24" height="24" rx="4" fill="white"/>
<path d="M4.90761 10.9181C4.5861 10.2578 4.39697 9.51619 4.39697 8.71365C4.39697 6.11302 6.36388 4 8.78468 4C10.1653 4 11.3946 4.68064 12.1984 5.75746C13.0022 4.68064 14.2315 4 15.6121 4C18.0329 4 19.9998 6.11302 19.9998 8.71365C19.9998 9.95302 19.5554 11.0806 18.8272 11.9137L18.7138 12.0457L12.0755 20L10.7705 18.3746" stroke="#7000FF" stroke-linecap="round" stroke-linejoin="round"/>
<path d="M4 14.2908L7.47045 10.5625" stroke="#8B9AFB" stroke-miterlimit="10" stroke-linecap="round"/>
<path d="M6.10889 16.5656L12.0096 10.2266" stroke="#8B9AFB" stroke-miterlimit="10" stroke-linecap="round"/>
<path d="M8.22705 18.8318L11.6975 15.1035" stroke="#8B9AFB" stroke-miterlimit="10" stroke-linecap="round"/>
</svg>
