<svg width="80" height="70" viewBox="0 0 80 70" fill="none" xmlns="http://www.w3.org/2000/svg">
<g filter="url(#filter0_d_1659_2890)">
<rect x="15" y="5" width="50" height="40" rx="15" fill="url(#paint0_linear_1659_2890)"/>
<rect x="15" y="5" width="50" height="40" rx="15" fill="url(#paint1_radial_1659_2890)"/>
</g>
<g filter="url(#filter1_d_1659_2890)">
<path d="M43.1792 16.0004C44.0603 16.0004 44.838 15.9753 45.521 16.3168L45.646 16.3842C46.26 16.7381 46.6836 17.3395 47.1792 18.0004L49.438 21.0131L49.7779 21.4721C49.8848 21.6223 49.9824 21.7689 50.0621 21.9086C50.2136 22.1746 50.3485 22.4968 50.358 22.8803L50.354 23.0483C50.3215 23.5066 50.1183 23.8587 49.9039 24.1352C49.8053 24.2623 49.6883 24.3941 49.5611 24.5278L49.1597 24.934L39.6792 34.4145L30.1988 24.934C29.9248 24.66 29.6518 24.3894 29.4546 24.1352C29.2402 23.8587 29.037 23.5066 29.0044 23.0483C28.9719 22.5899 29.1233 22.2126 29.2964 21.9086C29.4557 21.6291 29.688 21.323 29.9205 21.0131L32.1792 18.0004L32.565 17.4877C32.9456 16.9952 33.3252 16.5729 33.8374 16.3168L33.9664 16.2572C34.6179 15.9784 35.3531 16.0004 36.1792 16.0004H43.1792ZM39.6792 30.2934L42.5796 23.0004H36.7789L39.6792 30.2934ZM31.8111 23.7182L36.9576 28.8647L34.6822 23.144L31.8111 23.7182ZM42.3999 28.8647L47.5464 23.7182L44.6753 23.144L42.3999 28.8647ZM36.0738 18.0004C35.0839 18.002 34.8881 18.0278 34.732 18.1059C34.6109 18.1664 34.5005 18.2649 34.1792 18.6752L33.7789 19.2006L31.939 21.6537L34.6128 21.1186L36.0738 18.0004ZM44.7447 21.1186L47.4195 21.6537L45.5796 19.2006C44.9305 18.3352 44.788 18.1867 44.6265 18.1059C44.4703 18.0278 44.2745 18.002 43.2837 18.0004L44.7447 21.1186ZM38.1783 18.0004C38.1784 18.1428 38.1489 18.2878 38.0845 18.4252L36.8775 21.0004H42.481L41.274 18.4252L41.2349 18.3305C41.1969 18.2221 41.1801 18.1105 41.1802 18.0004H38.1783Z" fill="white"/>
<path d="M43.1792 16.0004C44.0603 16.0004 44.838 15.9753 45.521 16.3168L45.646 16.3842C46.26 16.7381 46.6836 17.3395 47.1792 18.0004L49.438 21.0131L49.7779 21.4721C49.8848 21.6223 49.9824 21.7689 50.0621 21.9086C50.2136 22.1746 50.3485 22.4968 50.358 22.8803L50.354 23.0483C50.3215 23.5066 50.1183 23.8587 49.9039 24.1352C49.8053 24.2623 49.6883 24.3941 49.5611 24.5278L49.1597 24.934L39.6792 34.4145L30.1988 24.934C29.9248 24.66 29.6518 24.3894 29.4546 24.1352C29.2402 23.8587 29.037 23.5066 29.0044 23.0483C28.9719 22.5899 29.1233 22.2126 29.2964 21.9086C29.4557 21.6291 29.688 21.323 29.9205 21.0131L32.1792 18.0004L32.565 17.4877C32.9456 16.9952 33.3252 16.5729 33.8374 16.3168L33.9664 16.2572C34.6179 15.9784 35.3531 16.0004 36.1792 16.0004H43.1792ZM39.6792 30.2934L42.5796 23.0004H36.7789L39.6792 30.2934ZM31.8111 23.7182L36.9576 28.8647L34.6822 23.144L31.8111 23.7182ZM42.3999 28.8647L47.5464 23.7182L44.6753 23.144L42.3999 28.8647ZM36.0738 18.0004C35.0839 18.002 34.8881 18.0278 34.732 18.1059C34.6109 18.1664 34.5005 18.2649 34.1792 18.6752L33.7789 19.2006L31.939 21.6537L34.6128 21.1186L36.0738 18.0004ZM44.7447 21.1186L47.4195 21.6537L45.5796 19.2006C44.9305 18.3352 44.788 18.1867 44.6265 18.1059C44.4703 18.0278 44.2745 18.002 43.2837 18.0004L44.7447 21.1186ZM38.1783 18.0004C38.1784 18.1428 38.1489 18.2878 38.0845 18.4252L36.8775 21.0004H42.481L41.274 18.4252L41.2349 18.3305C41.1969 18.2221 41.1801 18.1105 41.1802 18.0004H38.1783Z" fill="url(#paint2_linear_1659_2890)"/>
</g>
<defs>
<filter id="filter0_d_1659_2890" x="0" y="0" width="80" height="70" filterUnits="userSpaceOnUse" color-interpolation-filters="sRGB">
<feFlood flood-opacity="0" result="BackgroundImageFix"/>
<feColorMatrix in="SourceAlpha" type="matrix" values="0 0 0 0 0 0 0 0 0 0 0 0 0 0 0 0 0 0 127 0" result="hardAlpha"/>
<feOffset dy="10"/>
<feGaussianBlur stdDeviation="7.5"/>
<feComposite in2="hardAlpha" operator="out"/>
<feColorMatrix type="matrix" values="0 0 0 0 0.4 0 0 0 0 0.0627451 0 0 0 0 0.960784 0 0 0 0.4 0"/>
<feBlend mode="normal" in2="BackgroundImageFix" result="effect1_dropShadow_1659_2890"/>
<feBlend mode="normal" in="SourceGraphic" in2="effect1_dropShadow_1659_2890" result="shape"/>
</filter>
<filter id="filter1_d_1659_2890" x="25" y="10" width="29.3584" height="26.4145" filterUnits="userSpaceOnUse" color-interpolation-filters="sRGB">
<feFlood flood-opacity="0" result="BackgroundImageFix"/>
<feColorMatrix in="SourceAlpha" type="matrix" values="0 0 0 0 0 0 0 0 0 0 0 0 0 0 0 0 0 0 127 0" result="hardAlpha"/>
<feOffset dy="-2"/>
<feGaussianBlur stdDeviation="2"/>
<feComposite in2="hardAlpha" operator="out"/>
<feColorMatrix type="matrix" values="0 0 0 0 0.509804 0 0 0 0 0.215686 0 0 0 0 1 0 0 0 1 0"/>
<feBlend mode="normal" in2="BackgroundImageFix" result="effect1_dropShadow_1659_2890"/>
<feBlend mode="normal" in="SourceGraphic" in2="effect1_dropShadow_1659_2890" result="shape"/>
</filter>
<linearGradient id="paint0_linear_1659_2890" x1="40" y1="5" x2="40" y2="45" gradientUnits="userSpaceOnUse">
<stop stop-color="#B846FF"/>
<stop offset="1" stop-color="#6610F5"/>
</linearGradient>
<radialGradient id="paint1_radial_1659_2890" cx="0" cy="0" r="1" gradientUnits="userSpaceOnUse" gradientTransform="translate(40 40) rotate(90) scale(11.5 73.4722)">
<stop stop-color="#9B5FFF"/>
<stop offset="1" stop-color="#9B5FFF" stop-opacity="0"/>
</radialGradient>
<linearGradient id="paint2_linear_1659_2890" x1="40" y1="19" x2="39.679" y2="34.4145" gradientUnits="userSpaceOnUse">
<stop stop-color="white"/>
<stop offset="0.466346" stop-color="#6610F5" stop-opacity="0.5"/>
<stop offset="1" stop-color="#6610F5" stop-opacity="0.6"/>
</linearGradient>
</defs>
</svg>
