<svg width="80" height="70" viewBox="0 0 80 70" fill="none" xmlns="http://www.w3.org/2000/svg">
<g filter="url(#filter0_d_1659_2891)">
<rect x="15" y="5" width="50" height="40" rx="15" fill="url(#paint0_linear_1659_2891)"/>
<rect x="15" y="5" width="50" height="40" rx="15" fill="url(#paint1_radial_1659_2891)"/>
</g>
<g filter="url(#filter1_d_1659_2891)">
<path d="M41.7705 25C41.7705 23.8954 40.8751 23 39.7705 23C38.6659 23 37.7705 23.8954 37.7705 25C37.7705 26.1046 38.6659 27 39.7705 27V29C37.5614 29 35.7705 27.2091 35.7705 25C35.7705 22.7909 37.5614 21 39.7705 21C41.9796 21 43.7705 22.7909 43.7705 25C43.7705 27.2091 41.9796 29 39.7705 29V27C40.8751 27 41.7705 26.1046 41.7705 25Z" fill="white"/>
<path d="M41.7705 25C41.7705 23.8954 40.8751 23 39.7705 23C38.6659 23 37.7705 23.8954 37.7705 25C37.7705 26.1046 38.6659 27 39.7705 27V29C37.5614 29 35.7705 27.2091 35.7705 25C35.7705 22.7909 37.5614 21 39.7705 21C41.9796 21 43.7705 22.7909 43.7705 25C43.7705 27.2091 41.9796 29 39.7705 29V27C40.8751 27 41.7705 26.1046 41.7705 25Z" fill="url(#paint2_linear_1659_2891)"/>
<path d="M39.7705 18C41.8804 18 43.7763 18.9274 45.2793 20.0088C46.7902 21.0958 47.9906 22.4005 48.7305 23.2988L48.9902 23.6152C49.2625 23.9627 49.541 24.408 49.541 25L49.5352 25.1445C49.4946 25.6653 49.2399 26.0662 48.9902 26.3848L48.7305 26.7012C47.9906 27.5995 46.7902 28.9042 45.2793 29.9912C43.7763 31.0726 41.8804 32 39.7705 32C37.6606 32 35.7647 31.0726 34.2617 29.9912C32.9395 29.0399 31.8554 27.922 31.1094 27.0557L30.8105 26.7012C30.5144 26.3417 30.0612 25.8546 30.0059 25.1445L30 25L30.0059 24.8555C30.0612 24.1454 30.5144 23.6583 30.8105 23.2988L31.1094 22.9443C31.8554 22.078 32.9395 20.9601 34.2617 20.0088C35.7647 18.9274 37.6606 18 39.7705 18ZM39.7705 20C38.2447 20 36.7567 20.6781 35.4297 21.6328C34.2755 22.4633 33.3076 23.4573 32.6279 24.2461L32.3545 24.5703C32.2548 24.6914 32.1799 24.7817 32.1182 24.8613C32.0696 24.924 32.0398 24.9686 32.0195 25C32.0398 25.0314 32.0696 25.076 32.1182 25.1387C32.1799 25.2183 32.2548 25.3086 32.3545 25.4297L32.6279 25.7539C33.3076 26.5427 34.2755 27.5367 35.4297 28.3672C36.7567 29.3219 38.2447 30 39.7705 30C41.2963 30 42.7843 29.3219 44.1113 28.3672C45.4304 27.4182 46.5063 26.2555 47.1865 25.4297L47.4229 25.1387C47.4711 25.0763 47.5002 25.0314 47.5205 25C47.5002 24.9686 47.4711 24.9237 47.4229 24.8613L47.1865 24.5703C46.5063 23.7445 45.4304 22.5818 44.1113 21.6328C42.7843 20.6781 41.2963 20 39.7705 20Z" fill="white"/>
<path d="M39.7705 18C41.8804 18 43.7763 18.9274 45.2793 20.0088C46.7902 21.0958 47.9906 22.4005 48.7305 23.2988L48.9902 23.6152C49.2625 23.9627 49.541 24.408 49.541 25L49.5352 25.1445C49.4946 25.6653 49.2399 26.0662 48.9902 26.3848L48.7305 26.7012C47.9906 27.5995 46.7902 28.9042 45.2793 29.9912C43.7763 31.0726 41.8804 32 39.7705 32C37.6606 32 35.7647 31.0726 34.2617 29.9912C32.9395 29.0399 31.8554 27.922 31.1094 27.0557L30.8105 26.7012C30.5144 26.3417 30.0612 25.8546 30.0059 25.1445L30 25L30.0059 24.8555C30.0612 24.1454 30.5144 23.6583 30.8105 23.2988L31.1094 22.9443C31.8554 22.078 32.9395 20.9601 34.2617 20.0088C35.7647 18.9274 37.6606 18 39.7705 18ZM39.7705 20C38.2447 20 36.7567 20.6781 35.4297 21.6328C34.2755 22.4633 33.3076 23.4573 32.6279 24.2461L32.3545 24.5703C32.2548 24.6914 32.1799 24.7817 32.1182 24.8613C32.0696 24.924 32.0398 24.9686 32.0195 25C32.0398 25.0314 32.0696 25.076 32.1182 25.1387C32.1799 25.2183 32.2548 25.3086 32.3545 25.4297L32.6279 25.7539C33.3076 26.5427 34.2755 27.5367 35.4297 28.3672C36.7567 29.3219 38.2447 30 39.7705 30C41.2963 30 42.7843 29.3219 44.1113 28.3672C45.4304 27.4182 46.5063 26.2555 47.1865 25.4297L47.4229 25.1387C47.4711 25.0763 47.5002 25.0314 47.5205 25C47.5002 24.9686 47.4711 24.9237 47.4229 24.8613L47.1865 24.5703C46.5063 23.7445 45.4304 22.5818 44.1113 21.6328C42.7843 20.6781 41.2963 20 39.7705 20Z" fill="url(#paint3_linear_1659_2891)"/>
</g>
<defs>
<filter id="filter0_d_1659_2891" x="0" y="0" width="80" height="70" filterUnits="userSpaceOnUse" color-interpolation-filters="sRGB">
<feFlood flood-opacity="0" result="BackgroundImageFix"/>
<feColorMatrix in="SourceAlpha" type="matrix" values="0 0 0 0 0 0 0 0 0 0 0 0 0 0 0 0 0 0 127 0" result="hardAlpha"/>
<feOffset dy="10"/>
<feGaussianBlur stdDeviation="7.5"/>
<feComposite in2="hardAlpha" operator="out"/>
<feColorMatrix type="matrix" values="0 0 0 0 0.4 0 0 0 0 0.0627451 0 0 0 0 0.960784 0 0 0 0.4 0"/>
<feBlend mode="normal" in2="BackgroundImageFix" result="effect1_dropShadow_1659_2891"/>
<feBlend mode="normal" in="SourceGraphic" in2="effect1_dropShadow_1659_2891" result="shape"/>
</filter>
<filter id="filter1_d_1659_2891" x="26" y="12" width="27.541" height="22" filterUnits="userSpaceOnUse" color-interpolation-filters="sRGB">
<feFlood flood-opacity="0" result="BackgroundImageFix"/>
<feColorMatrix in="SourceAlpha" type="matrix" values="0 0 0 0 0 0 0 0 0 0 0 0 0 0 0 0 0 0 127 0" result="hardAlpha"/>
<feOffset dy="-2"/>
<feGaussianBlur stdDeviation="2"/>
<feComposite in2="hardAlpha" operator="out"/>
<feColorMatrix type="matrix" values="0 0 0 0 0.509804 0 0 0 0 0.215686 0 0 0 0 1 0 0 0 1 0"/>
<feBlend mode="normal" in2="BackgroundImageFix" result="effect1_dropShadow_1659_2891"/>
<feBlend mode="normal" in="SourceGraphic" in2="effect1_dropShadow_1659_2891" result="shape"/>
</filter>
<linearGradient id="paint0_linear_1659_2891" x1="40" y1="5" x2="40" y2="45" gradientUnits="userSpaceOnUse">
<stop stop-color="#B846FF"/>
<stop offset="1" stop-color="#6610F5"/>
</linearGradient>
<radialGradient id="paint1_radial_1659_2891" cx="0" cy="0" r="1" gradientUnits="userSpaceOnUse" gradientTransform="translate(40 40) rotate(90) scale(11.5 73.4722)">
<stop stop-color="#9B5FFF"/>
<stop offset="1" stop-color="#9B5FFF" stop-opacity="0"/>
</radialGradient>
<linearGradient id="paint2_linear_1659_2891" x1="39.8908" y1="22.3033" x2="39.729" y2="28.999" gradientUnits="userSpaceOnUse">
<stop stop-color="white"/>
<stop offset="0.466346" stop-color="#6610F5" stop-opacity="0.5"/>
<stop offset="1" stop-color="#6610F5" stop-opacity="0.4"/>
</linearGradient>
<linearGradient id="paint3_linear_1659_2891" x1="40.0642" y1="20.2808" x2="39.8614" y2="32.0016" gradientUnits="userSpaceOnUse">
<stop stop-color="white"/>
<stop offset="0.466346" stop-color="#6610F5" stop-opacity="0.5"/>
<stop offset="1" stop-color="#6610F5" stop-opacity="0.4"/>
</linearGradient>
</defs>
</svg>
