<svg width="183" height="38" viewBox="0 0 183 38" fill="none" xmlns="http://www.w3.org/2000/svg">
<path d="M0.456055 19C0.456055 29.4934 8.96264 38 19.4561 38L19.4561 -1.29174e-07C8.96264 -5.78333e-08 0.456055 8.50659 0.456055 19Z" fill="url(#paint0_radial_371_198)"/>
<path d="M34.4561 19.4902C34.4561 11.206 27.7403 4.49024 19.4561 4.49024L19.4561 34.4902C27.7403 34.4902 34.4561 27.7745 34.4561 19.4902Z" fill="#7000FF"/>
<path d="M175.207 24.0331C175.207 25.069 175.485 25.8499 176.043 26.3758C176.601 26.8858 177.262 27.1408 178.027 27.1408C178.808 27.1408 179.438 26.9655 179.916 26.6149C180.394 26.2643 180.633 25.7942 180.633 25.2045C180.633 24.5989 180.426 24.1049 180.012 23.7224C179.613 23.3399 179.127 23.0291 178.553 22.7901C177.98 22.551 177.398 22.304 176.808 22.049C176.234 21.794 175.74 21.4195 175.326 20.9255C174.928 20.4314 174.728 19.7701 174.728 18.9413C174.728 18.1126 175.095 17.4274 175.828 16.8855C176.577 16.3277 177.438 16.0488 178.41 16.0488C179.796 16.0488 180.88 16.2719 181.661 16.7182C181.661 17.4513 181.565 18.4712 181.374 19.778L181.087 19.7063C181.087 18.6545 180.848 17.8895 180.37 17.4114C179.892 16.9333 179.31 16.6943 178.625 16.6943C177.956 16.6943 177.414 16.8696 176.999 17.2202C176.601 17.5708 176.402 18.0489 176.402 18.6545C176.402 19.2441 176.601 19.7222 176.999 20.0888C177.414 20.4394 177.908 20.7342 178.482 20.9733C179.055 21.2123 179.629 21.4673 180.203 21.7382C180.792 21.9932 181.286 22.3678 181.685 22.8618C182.099 23.3399 182.306 23.9296 182.306 24.6308C182.306 25.6507 181.908 26.4396 181.111 26.9974C180.314 27.5552 179.262 27.8341 177.956 27.8341C176.665 27.8341 175.573 27.4914 174.681 26.8061C174.681 26.0093 174.76 25.069 174.92 23.9853L175.207 24.0331Z" fill="#1E1E1E"/>
<path d="M165.378 24.0331C165.378 25.069 165.657 25.8499 166.215 26.3758C166.773 26.8858 167.434 27.1408 168.199 27.1408C168.98 27.1408 169.61 26.9655 170.088 26.6149C170.566 26.2643 170.805 25.7942 170.805 25.2045C170.805 24.5989 170.598 24.1049 170.183 23.7224C169.785 23.3399 169.299 23.0291 168.725 22.7901C168.151 22.551 167.57 22.304 166.98 22.049C166.406 21.794 165.912 21.4195 165.498 20.9255C165.1 20.4314 164.9 19.7701 164.9 18.9413C164.9 18.1126 165.267 17.4274 166 16.8855C166.749 16.3277 167.61 16.0488 168.582 16.0488C169.968 16.0488 171.052 16.2719 171.833 16.7182C171.833 17.4513 171.737 18.4712 171.546 19.778L171.259 19.7063C171.259 18.6545 171.02 17.8895 170.542 17.4114C170.064 16.9333 169.482 16.6943 168.797 16.6943C168.128 16.6943 167.586 16.8696 167.171 17.2202C166.773 17.5708 166.574 18.0489 166.574 18.6545C166.574 19.2441 166.773 19.7222 167.171 20.0888C167.586 20.4394 168.08 20.7342 168.653 20.9733C169.227 21.2123 169.801 21.4673 170.375 21.7382C170.964 21.9932 171.458 22.3678 171.857 22.8618C172.271 23.3399 172.478 23.9296 172.478 24.6308C172.478 25.6507 172.08 26.4396 171.283 26.9974C170.486 27.5552 169.434 27.8341 168.128 27.8341C166.837 27.8341 165.745 27.4914 164.853 26.8061C164.853 26.0093 164.932 25.069 165.092 23.9853L165.378 24.0331Z" fill="#1E1E1E"/>
<path d="M162.458 21.547H154.618V21.9534C154.618 23.6427 154.976 24.9336 155.693 25.826C156.41 26.7025 157.303 27.1408 158.371 27.1408C159.964 27.1408 161.112 26.5033 161.813 25.2284L162.172 25.4196C161.343 27.0293 159.956 27.8341 158.012 27.8341C156.578 27.8341 155.351 27.3161 154.331 26.2802C153.311 25.2443 152.801 23.8499 152.801 22.0968C152.801 20.3278 153.247 18.8776 154.139 17.7461C155.048 16.6146 156.251 16.0488 157.749 16.0488C159.263 16.0488 160.427 16.5668 161.239 17.6027C162.052 18.6226 162.458 19.9374 162.458 21.547ZM157.821 16.5269C156.897 16.5269 156.163 16.9253 155.622 17.7222C155.096 18.5031 154.777 19.5469 154.665 20.8538H160.618C160.506 17.9692 159.574 16.5269 157.821 16.5269Z" fill="#1E1E1E"/>
<path d="M150.569 15.9277C150.967 15.9277 151.318 16.0154 151.62 16.1907C151.923 16.366 152.075 16.605 152.075 16.9078C152.075 17.2106 151.979 17.4497 151.788 17.625C151.597 17.8003 151.381 17.888 151.142 17.888C150.903 17.888 150.6 17.7844 150.234 17.5772C149.883 17.37 149.509 17.2664 149.11 17.2664C148.489 17.2664 147.979 17.8401 147.58 18.9876C147.198 20.135 147.007 21.4658 147.007 22.9797C147.007 25.0197 147.11 26.2548 147.318 26.685C147.381 26.8285 147.501 26.9639 147.676 27.0914C147.851 27.203 148.035 27.2667 148.226 27.2827C148.417 27.2986 148.688 27.3066 149.039 27.3066L149.087 27.5934H143.278L143.325 27.3066C143.835 27.3066 144.202 27.2827 144.425 27.2349C144.664 27.1711 144.863 26.9719 145.023 26.6372C145.182 26.3026 145.27 25.8882 145.286 25.3942C145.317 24.8842 145.333 24.0794 145.333 22.9797V21.5933C145.333 19.378 145.27 18.119 145.142 17.8162C145.031 17.5134 144.927 17.2744 144.831 17.0991C144.736 16.9238 144.592 16.8043 144.401 16.7405C144.05 16.6449 143.588 16.5971 143.015 16.5971L142.967 16.3341C144.321 16.1429 145.668 16.0473 147.007 16.0473V19.5613C147.182 18.4298 147.573 17.5453 148.178 16.9078C148.8 16.2544 149.596 15.9277 150.569 15.9277Z" fill="#1E1E1E"/>
<path d="M135.445 10.8613C139.668 10.8613 141.78 12.4709 141.78 15.6902C141.78 17.1085 141.278 18.2719 140.274 19.1803C139.286 20.0887 138.106 20.5429 136.736 20.5429C135.365 20.5429 134.202 20.3198 133.246 19.8736V22.1924C133.246 23.8976 133.293 25.061 133.389 25.6825C133.501 26.304 133.652 26.6945 133.843 26.8539C134.21 27.1567 134.791 27.3081 135.588 27.3081L135.636 27.5949H129.182L129.229 27.3081C130.026 27.3081 130.608 27.1567 130.975 26.8539C131.373 26.5192 131.572 24.9654 131.572 22.1924V16.2639C131.572 14.5587 131.516 13.3953 131.405 12.7737C131.309 12.1522 131.166 11.7618 130.975 11.6024C130.608 11.2996 130.026 11.1482 129.229 11.1482L129.182 10.8613H135.445ZM133.246 11.4111V19.2759C134.074 19.7222 135.046 19.9453 136.162 19.9453C137.293 19.9453 138.202 19.5947 138.887 18.8935C139.572 18.1763 139.915 17.1085 139.915 15.6902C139.915 13.9212 139.341 12.7419 138.194 12.1522C137.254 11.6582 136.122 11.4111 134.799 11.4111H133.246Z" fill="#1E1E1E"/>
<path d="M113.903 24.0331C113.903 25.069 114.182 25.8499 114.74 26.3758C115.297 26.8858 115.959 27.1408 116.724 27.1408C117.505 27.1408 118.134 26.9655 118.612 26.6149C119.09 26.2643 119.329 25.7942 119.329 25.2045C119.329 24.5989 119.122 24.1049 118.708 23.7224C118.309 23.3399 117.823 23.0291 117.25 22.7901C116.676 22.551 116.094 22.304 115.505 22.049C114.931 21.794 114.437 21.4195 114.022 20.9255C113.624 20.4314 113.425 19.7701 113.425 18.9413C113.425 18.1126 113.791 17.4274 114.524 16.8855C115.273 16.3277 116.134 16.0488 117.106 16.0488C118.493 16.0488 119.576 16.2719 120.357 16.7182C120.357 17.4513 120.262 18.4712 120.07 19.778L119.784 19.7063C119.784 18.6545 119.544 17.8895 119.066 17.4114C118.588 16.9333 118.007 16.6943 117.321 16.6943C116.652 16.6943 116.11 16.8696 115.696 17.2202C115.297 17.5708 115.098 18.0489 115.098 18.6545C115.098 19.2441 115.297 19.7222 115.696 20.0888C116.11 20.4394 116.604 20.7342 117.178 20.9733C117.752 21.2123 118.325 21.4673 118.899 21.7382C119.489 21.9932 119.983 22.3678 120.381 22.8618C120.796 23.3399 121.003 23.9296 121.003 24.6308C121.003 25.6507 120.604 26.4396 119.807 26.9974C119.011 27.5552 117.959 27.8341 116.652 27.8341C115.361 27.8341 114.269 27.4914 113.377 26.8061C113.377 26.0093 113.457 25.069 113.616 23.9853L113.903 24.0331Z" fill="#1E1E1E"/>
<path d="M110.673 15.9277C111.072 15.9277 111.422 16.0154 111.725 16.1907C112.028 16.366 112.179 16.605 112.179 16.9078C112.179 17.2106 112.084 17.4497 111.892 17.625C111.701 17.8003 111.486 17.888 111.247 17.888C111.008 17.888 110.705 17.7844 110.338 17.5772C109.988 17.37 109.613 17.2664 109.215 17.2664C108.593 17.2664 108.083 17.8401 107.685 18.9876C107.302 20.135 107.111 21.4658 107.111 22.9797C107.111 25.0197 107.215 26.2548 107.422 26.685C107.486 26.8285 107.605 26.9639 107.781 27.0914C107.956 27.203 108.139 27.2667 108.33 27.2827C108.522 27.2986 108.793 27.3066 109.143 27.3066L109.191 27.5934H103.382L103.43 27.3066C103.94 27.3066 104.306 27.2827 104.53 27.2349C104.769 27.1711 104.968 26.9719 105.127 26.6372C105.286 26.3026 105.374 25.8882 105.39 25.3942C105.422 24.8842 105.438 24.0794 105.438 22.9797V21.5933C105.438 19.378 105.374 18.119 105.247 17.8162C105.135 17.5134 105.032 17.2744 104.936 17.0991C104.84 16.9238 104.697 16.8043 104.506 16.7405C104.155 16.6449 103.693 16.5971 103.119 16.5971L103.071 16.3341C104.426 16.1429 105.773 16.0473 107.111 16.0473V19.5613C107.287 18.4298 107.677 17.5453 108.283 16.9078C108.904 16.2544 109.701 15.9277 110.673 15.9277Z" fill="#1E1E1E"/>
<path d="M101.155 21.547H93.3139V21.9534C93.3139 23.6427 93.6724 24.9336 94.3896 25.826C95.1067 26.7025 95.9992 27.1408 97.067 27.1408C98.6606 27.1408 99.8081 26.5033 100.509 25.2284L100.868 25.4196C100.039 27.0293 98.6527 27.8341 96.7084 27.8341C95.2741 27.8341 94.047 27.3161 93.027 26.2802C92.007 25.2443 91.4971 23.8499 91.4971 22.0968C91.4971 20.3278 91.9433 18.8776 92.8358 17.7461C93.7442 16.6146 94.9474 16.0488 96.4454 16.0488C97.9594 16.0488 99.1228 16.5668 99.9356 17.6027C100.748 18.6226 101.155 19.9374 101.155 21.547ZM96.5171 16.5269C95.5928 16.5269 94.8597 16.9253 94.3179 17.7222C93.792 18.5031 93.4732 19.5469 93.3617 20.8538H99.314C99.2025 17.9692 98.2702 16.5269 96.5171 16.5269Z" fill="#1E1E1E"/>
<path d="M82.4341 24.0331C82.4341 25.069 82.713 25.8499 83.2708 26.3758C83.8286 26.8858 84.49 27.1408 85.2549 27.1408C86.0358 27.1408 86.6653 26.9655 87.1434 26.6149C87.6215 26.2643 87.8606 25.7942 87.8606 25.2045C87.8606 24.5989 87.6534 24.1049 87.239 23.7224C86.8406 23.3399 86.3546 23.0291 85.7808 22.7901C85.2071 22.551 84.6254 22.304 84.0358 22.049C83.462 21.794 82.968 21.4195 82.5536 20.9255C82.1552 20.4314 81.956 19.7701 81.956 18.9413C81.956 18.1126 82.3226 17.4274 83.0557 16.8855C83.8047 16.3277 84.6653 16.0488 85.6374 16.0488C87.0239 16.0488 88.1076 16.2719 88.8885 16.7182C88.8885 17.4513 88.7929 18.4712 88.6016 19.778L88.3148 19.7063C88.3148 18.6545 88.0757 17.8895 87.5976 17.4114C87.1195 16.9333 86.5378 16.6943 85.8526 16.6943C85.1832 16.6943 84.6414 16.8696 84.227 17.2202C83.8286 17.5708 83.6294 18.0489 83.6294 18.6545C83.6294 19.2441 83.8286 19.7222 84.227 20.0888C84.6414 20.4394 85.1354 20.7342 85.7091 20.9733C86.2828 21.2123 86.8566 21.4673 87.4303 21.7382C88.0199 21.9932 88.514 22.3678 88.9124 22.8618C89.3268 23.3399 89.5339 23.9296 89.5339 24.6308C89.5339 25.6507 89.1355 26.4396 88.3387 26.9974C87.5418 27.5552 86.49 27.8341 85.1832 27.8341C83.8923 27.8341 82.8007 27.4914 81.9082 26.8061C81.9082 26.0093 81.9879 25.069 82.1473 23.9853L82.4341 24.0331Z" fill="#1E1E1E"/>
<path d="M68.9463 21.9534C68.9463 20.28 69.4244 18.8776 70.3806 17.7461C71.3368 16.6146 72.6356 16.0488 74.2771 16.0488C75.9186 16.0488 77.2414 16.6146 78.2454 17.7461C79.2494 18.8776 79.7514 20.28 79.7514 21.9534C79.7514 23.6268 79.2653 25.0292 78.2932 26.1607C77.337 27.2763 76.0381 27.8341 74.3967 27.8341C72.7552 27.8341 71.4324 27.2683 70.4284 26.1368C69.4403 25.0053 68.9463 23.6108 68.9463 21.9534ZM71.6954 25.826C72.3329 26.846 73.2333 27.356 74.3967 27.356C75.56 27.356 76.4366 26.8539 77.0262 25.8499C77.6318 24.8459 77.9346 23.555 77.9346 21.9773C77.9346 20.3836 77.6159 19.0768 76.9784 18.0569C76.3409 17.0369 75.4405 16.5269 74.2771 16.5269C73.1297 16.5269 72.2532 17.0369 71.6476 18.0569C71.0579 19.0609 70.7631 20.3518 70.7631 21.9295C70.7631 23.5072 71.0738 24.8061 71.6954 25.826Z" fill="#1E1E1E"/>
<path d="M65.1979 10V23.4347C65.1979 25.2037 65.3015 26.2953 65.5087 26.7097C65.7159 27.1081 66.2896 27.3073 67.2298 27.3073L67.2777 27.5942H61.4209L61.4687 27.3073C62.4249 27.3073 63.0066 27.1081 63.2138 26.7097C63.421 26.3113 63.5246 25.2196 63.5246 23.4347V14.3029C63.5246 12.5339 63.4289 11.4662 63.2377 11.0996C63.1739 10.9881 63.0544 10.8765 62.8791 10.765C62.7038 10.6534 62.5126 10.5897 62.3054 10.5737C62.1141 10.5578 61.8353 10.5498 61.4687 10.5498L61.4209 10.2869C62.6162 10.0956 63.8752 10 65.1979 10Z" fill="#1E1E1E"/>
<path d="M60.108 25.7526C58.2753 27.1391 56.076 27.8323 53.5102 27.8323C50.9603 27.8323 48.9045 27.0116 47.3427 25.3701C45.7809 23.7286 45 21.6807 45 19.2265C45 16.7722 45.749 14.7323 47.2471 13.1068C48.7611 11.4653 50.793 10.6445 53.3429 10.6445C54.5222 10.6445 55.7015 10.8039 56.8809 11.1226C58.0602 11.4414 58.9526 11.7681 59.5582 12.1027V15.1626L59.2953 15.1148C58.8969 13.6805 58.2036 12.6685 57.2155 12.0788C56.2434 11.4892 54.9525 11.1943 53.3429 11.1943C51.303 11.1943 49.7492 11.9354 48.6814 13.4175C47.6136 14.8837 47.0797 16.8041 47.0797 19.1787C47.0797 21.5532 47.6455 23.4736 48.777 24.9398C49.9085 26.406 51.4942 27.1391 53.5341 27.1391C55.0003 27.1391 56.2195 26.9638 57.1916 26.6132C58.1797 26.2466 59.1518 25.7207 60.108 25.0354V25.7526Z" fill="#1E1E1E"/>
<defs>
<radialGradient id="paint0_radial_371_198" cx="0" cy="0" r="1" gradientUnits="userSpaceOnUse" gradientTransform="translate(19.4561 19) rotate(180) scale(19)">
<stop stop-color="#7000FF"/>
<stop offset="1" stop-color="#7000FF" stop-opacity="0"/>
</radialGradient>
</defs>
</svg>
