<svg width="220" height="140" viewBox="0 0 220 140" fill="none" xmlns="http://www.w3.org/2000/svg">
<path d="M196.8 113.176C195.063 113.176 193.548 112.771 192.254 111.96C190.98 111.13 190.112 110.02 189.648 108.63L192.833 107.124C193.239 107.974 193.789 108.64 194.484 109.122C195.179 109.605 195.951 109.846 196.8 109.846C197.418 109.846 197.891 109.721 198.219 109.47C198.547 109.219 198.711 108.871 198.711 108.427C198.711 108.196 198.653 108.003 198.537 107.848C198.422 107.675 198.248 107.52 198.016 107.385C197.785 107.25 197.495 107.134 197.148 107.038L194.455 106.285C193.162 105.918 192.167 105.329 191.473 104.519C190.778 103.689 190.43 102.714 190.43 101.594C190.43 100.61 190.681 99.7507 191.183 99.0172C191.685 98.2837 192.389 97.7142 193.297 97.3089C194.204 96.8842 195.246 96.6719 196.424 96.6719C197.968 96.6719 199.319 97.0386 200.477 97.7721C201.655 98.4864 202.485 99.4998 202.968 100.812L199.754 102.318C199.522 101.662 199.097 101.141 198.48 100.754C197.881 100.349 197.196 100.146 196.424 100.146C195.864 100.146 195.42 100.262 195.092 100.494C194.783 100.726 194.629 101.044 194.629 101.449C194.629 101.662 194.687 101.855 194.802 102.028C194.918 102.202 195.102 102.357 195.352 102.492C195.623 102.627 195.951 102.752 196.337 102.868L198.856 103.621C200.169 104.007 201.172 104.596 201.867 105.387C202.562 106.159 202.91 107.115 202.91 108.254C202.91 109.238 202.649 110.097 202.128 110.831C201.626 111.564 200.921 112.143 200.014 112.568C199.107 112.973 198.036 113.176 196.8 113.176Z" fill="#D9D5C3"/>
<path d="M173.639 112.827V90.9082H177.982V104.951L176.36 104.43L183.338 97.0176H188.695L182.962 103.388L188.666 112.827H183.744L178.966 104.806L181.485 104.169L176.65 109.439L177.982 106.92V112.827H173.639Z" fill="#D9D5C3"/>
<path d="M162.624 113.176C161.061 113.176 159.632 112.819 158.339 112.105C157.065 111.39 156.042 110.416 155.27 109.18C154.517 107.926 154.141 106.507 154.141 104.924C154.141 103.322 154.517 101.903 155.27 100.668C156.042 99.4322 157.065 98.4574 158.339 97.7432C159.632 97.029 161.061 96.6719 162.624 96.6719C164.188 96.6719 165.607 97.029 166.881 97.7432C168.155 98.4574 169.168 99.4322 169.921 100.668C170.693 101.903 171.079 103.322 171.079 104.924C171.079 106.507 170.693 107.926 169.921 109.18C169.168 110.416 168.155 111.39 166.881 112.105C165.607 112.819 164.188 113.176 162.624 113.176ZM162.624 109.267C163.416 109.267 164.101 109.084 164.68 108.717C165.278 108.35 165.742 107.839 166.07 107.182C166.417 106.526 166.591 105.773 166.591 104.924C166.591 104.075 166.417 103.331 166.07 102.694C165.742 102.038 165.278 101.527 164.68 101.16C164.101 100.774 163.416 100.581 162.624 100.581C161.833 100.581 161.138 100.774 160.54 101.16C159.941 101.527 159.468 102.038 159.121 102.694C158.793 103.331 158.629 104.075 158.629 104.924C158.629 105.773 158.793 106.526 159.121 107.182C159.468 107.839 159.941 108.35 160.54 108.717C161.138 109.084 161.833 109.267 162.624 109.267Z" fill="#D9D5C3"/>
<path d="M143.764 113.176C142.2 113.176 140.772 112.819 139.479 112.105C138.205 111.39 137.182 110.416 136.409 109.18C135.657 107.926 135.28 106.507 135.28 104.924C135.28 103.322 135.657 101.903 136.409 100.668C137.182 99.4322 138.205 98.4574 139.479 97.7432C140.772 97.029 142.2 96.6719 143.764 96.6719C145.327 96.6719 146.746 97.029 148.02 97.7432C149.294 98.4574 150.308 99.4322 151.06 100.668C151.833 101.903 152.219 103.322 152.219 104.924C152.219 106.507 151.833 107.926 151.06 109.18C150.308 110.416 149.294 111.39 148.02 112.105C146.746 112.819 145.327 113.176 143.764 113.176ZM143.764 109.267C144.555 109.267 145.241 109.084 145.82 108.717C146.418 108.35 146.881 107.839 147.21 107.182C147.557 106.526 147.731 105.773 147.731 104.924C147.731 104.075 147.557 103.331 147.21 102.694C146.881 102.038 146.418 101.527 145.82 101.16C145.241 100.774 144.555 100.581 143.764 100.581C142.973 100.581 142.278 100.774 141.679 101.16C141.081 101.527 140.608 102.038 140.26 102.694C139.932 103.331 139.768 104.075 139.768 104.924C139.768 105.773 139.932 106.526 140.26 107.182C140.608 107.839 141.081 108.35 141.679 108.717C142.278 109.084 142.973 109.267 143.764 109.267Z" fill="#D9D5C3"/>
<path d="M116.245 112.827V91.2559H125.366C126.852 91.2559 128.126 91.5068 129.188 92.0087C130.249 92.5106 131.06 93.2344 131.62 94.1803C132.18 95.1068 132.46 96.236 132.46 97.5679C132.46 98.5138 132.199 99.421 131.678 100.29C131.157 101.139 130.298 101.853 129.101 102.432V100.232C130.24 100.676 131.118 101.207 131.736 101.824C132.353 102.442 132.778 103.118 133.01 103.851C133.241 104.565 133.357 105.318 133.357 106.11C133.357 108.233 132.653 109.883 131.244 111.061C129.834 112.238 127.875 112.827 125.366 112.827H116.245ZM120.733 108.918H125.887C126.794 108.918 127.518 108.658 128.059 108.136C128.599 107.615 128.869 106.94 128.869 106.11C128.869 105.26 128.599 104.575 128.059 104.054C127.518 103.533 126.794 103.272 125.887 103.272H120.733V108.918ZM120.733 99.3631H125.684C126.379 99.3631 126.929 99.1701 127.335 98.784C127.759 98.3787 127.972 97.8478 127.972 97.1915C127.972 96.5352 127.759 96.014 127.335 95.628C126.929 95.2226 126.379 95.0199 125.684 95.0199H120.733V99.3631Z" fill="#D9D5C3"/>
<path d="M184.698 84.2209C182.96 84.2209 181.445 83.8155 180.152 83.0048C178.878 82.1747 178.009 81.0648 177.546 79.675L180.731 78.1694C181.136 79.0187 181.686 79.6847 182.381 80.1672C183.076 80.6498 183.848 80.8911 184.698 80.8911C185.315 80.8911 185.788 80.7656 186.116 80.5147C186.445 80.2637 186.609 79.9163 186.609 79.4723C186.609 79.2407 186.551 79.0477 186.435 78.8932C186.319 78.7195 186.145 78.5651 185.914 78.43C185.682 78.2948 185.393 78.179 185.045 78.0825L182.352 77.3297C181.059 76.9629 180.065 76.3742 179.37 75.5635C178.675 74.7334 178.328 73.7586 178.328 72.6391C178.328 71.6546 178.579 70.7956 179.08 70.0621C179.582 69.3286 180.287 68.7592 181.194 68.3538C182.101 67.9291 183.144 67.7168 184.321 67.7168C185.865 67.7168 187.217 68.0836 188.375 68.8171C189.552 69.5313 190.382 70.5447 190.865 71.8573L187.651 73.3629C187.419 72.7066 186.995 72.1854 186.377 71.7994C185.779 71.394 185.093 71.1913 184.321 71.1913C183.761 71.1913 183.317 71.3072 182.989 71.5388C182.68 71.7704 182.526 72.0889 182.526 72.4943C182.526 72.7066 182.584 72.8997 182.7 73.0734C182.816 73.2471 182.999 73.4015 183.25 73.5367C183.52 73.6718 183.848 73.7972 184.234 73.9131L186.753 74.6659C188.066 75.0519 189.07 75.6407 189.765 76.4321C190.46 77.2042 190.807 78.1597 190.807 79.2986C190.807 80.2831 190.546 81.142 190.025 81.8755C189.523 82.6091 188.819 83.1882 187.912 83.6128C187.004 84.0182 185.933 84.2209 184.698 84.2209Z" fill="#D9D5C3"/>
<path d="M169.796 84.2209C168.059 84.2209 166.544 83.8155 165.25 83.0048C163.976 82.1747 163.108 81.0648 162.645 79.675L165.83 78.1694C166.235 79.0187 166.785 79.6847 167.48 80.1672C168.175 80.6498 168.947 80.8911 169.796 80.8911C170.414 80.8911 170.887 80.7656 171.215 80.5147C171.543 80.2637 171.707 79.9163 171.707 79.4723C171.707 79.2407 171.649 79.0477 171.534 78.8932C171.418 78.7195 171.244 78.5651 171.012 78.43C170.781 78.2948 170.491 78.179 170.144 78.0825L167.451 77.3297C166.158 76.9629 165.164 76.3742 164.469 75.5635C163.774 74.7334 163.426 73.7586 163.426 72.6391C163.426 71.6546 163.677 70.7956 164.179 70.0621C164.681 69.3286 165.386 68.7592 166.293 68.3538C167.2 67.9291 168.242 67.7168 169.42 67.7168C170.964 67.7168 172.315 68.0836 173.474 68.8171C174.651 69.5313 175.481 70.5447 175.964 71.8573L172.75 73.3629C172.518 72.7066 172.093 72.1854 171.476 71.7994C170.877 71.394 170.192 71.1913 169.42 71.1913C168.86 71.1913 168.416 71.3072 168.088 71.5388C167.779 71.7704 167.625 72.0889 167.625 72.4943C167.625 72.7066 167.683 72.8997 167.798 73.0734C167.914 73.2471 168.098 73.4015 168.349 73.5367C168.619 73.6718 168.947 73.7972 169.333 73.9131L171.852 74.6659C173.165 75.0519 174.168 75.6407 174.863 76.4321C175.558 77.2042 175.906 78.1597 175.906 79.2986C175.906 80.2831 175.645 81.142 175.124 81.8755C174.622 82.6091 173.917 83.1882 173.01 83.6128C172.103 84.0182 171.032 84.2209 169.796 84.2209Z" fill="#D9D5C3"/>
<path d="M153.514 84.2209C151.834 84.2209 150.377 83.8541 149.142 83.1206C147.906 82.3678 146.951 81.364 146.275 80.1093C145.6 78.8546 145.262 77.4648 145.262 75.9399C145.262 74.357 145.609 72.9479 146.304 71.7125C147.018 70.4771 147.974 69.5023 149.171 68.7881C150.367 68.0739 151.719 67.7168 153.224 67.7168C154.479 67.7168 155.589 67.9195 156.554 68.3248C157.519 68.7109 158.33 69.261 158.986 69.9752C159.662 70.6895 160.173 71.5195 160.521 72.4653C160.868 73.3919 161.042 74.4053 161.042 75.5056C161.042 75.8144 161.023 76.1233 160.984 76.4321C160.965 76.7216 160.916 76.9726 160.839 77.1849H148.997V73.9999H158.378L156.322 75.5056C156.515 74.6755 156.506 73.942 156.293 73.305C156.081 72.6487 155.705 72.1372 155.164 71.7704C154.643 71.3844 153.996 71.1913 153.224 71.1913C152.471 71.1913 151.825 71.3747 151.284 71.7415C150.744 72.1082 150.338 72.6487 150.068 73.3629C149.798 74.0771 149.692 74.9458 149.75 75.9688C149.672 76.8568 149.779 77.6385 150.068 78.3141C150.358 78.9897 150.802 79.5206 151.4 79.9066C151.998 80.2734 152.722 80.4568 153.572 80.4568C154.344 80.4568 155 80.3024 155.541 79.9935C156.1 79.6847 156.535 79.26 156.844 78.7195L160.318 80.3699C160.009 81.142 159.517 81.8176 158.841 82.3967C158.185 82.9758 157.403 83.4294 156.496 83.7576C155.589 84.0664 154.595 84.2209 153.514 84.2209Z" fill="#D9D5C3"/>
<path d="M134.73 83.8735V68.0644H138.784V71.8574L138.495 71.3073C138.842 69.9753 139.411 69.0778 140.203 68.6145C141.014 68.1319 141.969 67.8906 143.069 67.8906H143.996V71.6547H142.635C141.573 71.6547 140.714 71.9829 140.058 72.6392C139.402 73.2762 139.074 74.1834 139.074 75.3609V83.8735H134.73Z" fill="#D9D5C3"/>
<path d="M116.245 83.8719V62.3008H124.526C126.012 62.3008 127.325 62.5614 128.464 63.0826C129.622 63.6037 130.529 64.3759 131.186 65.3989C131.842 66.422 132.17 67.6863 132.17 69.192C132.17 70.659 131.832 71.904 131.157 72.9271C130.5 73.9501 129.593 74.7319 128.435 75.2724C127.296 75.7936 125.993 76.0542 124.526 76.0542H120.733V83.8719H116.245ZM120.733 72.1453H124.555C125.192 72.1453 125.742 72.0198 126.205 71.7689C126.669 71.518 127.026 71.1705 127.277 70.7265C127.547 70.2826 127.682 69.771 127.682 69.192C127.682 68.5936 127.547 68.0724 127.277 67.6284C127.026 67.1844 126.669 66.837 126.205 66.586C125.742 66.3351 125.192 66.2096 124.555 66.2096H120.733V72.1453Z" fill="#D9D5C3"/>
<path d="M213.034 55.2658C211.296 55.2658 209.781 54.8604 208.488 54.0497C207.214 53.2197 206.345 52.1097 205.882 50.7199L209.067 49.2143C209.472 50.0636 210.022 50.7296 210.717 51.2122C211.412 51.6947 212.184 51.936 213.034 51.936C213.651 51.936 214.124 51.8105 214.452 51.5596C214.781 51.3087 214.945 50.9612 214.945 50.5172C214.945 50.2856 214.887 50.0926 214.771 49.9382C214.655 49.7644 214.481 49.61 214.25 49.4749C214.018 49.3398 213.729 49.2239 213.381 49.1274L210.688 48.3746C209.395 48.0079 208.401 47.4191 207.706 46.6084C207.011 45.7784 206.664 44.8036 206.664 43.684C206.664 42.6995 206.915 41.8405 207.416 41.107C207.918 40.3735 208.623 39.8041 209.53 39.3987C210.437 38.9741 211.48 38.7617 212.657 38.7617C214.201 38.7617 215.553 39.1285 216.711 39.862C217.888 40.5762 218.718 41.5896 219.201 42.9022L215.987 44.4078C215.755 43.7515 215.331 43.2304 214.713 42.8443C214.115 42.4389 213.429 42.2363 212.657 42.2363C212.097 42.2363 211.653 42.3521 211.325 42.5837C211.016 42.8153 210.862 43.1338 210.862 43.5392C210.862 43.7515 210.92 43.9446 211.036 44.1183C211.152 44.292 211.335 44.4465 211.586 44.5816C211.856 44.7167 212.184 44.8422 212.57 44.958L215.089 45.7108C216.402 46.0969 217.406 46.6856 218.101 47.477C218.796 48.2491 219.143 49.2046 219.143 50.3435C219.143 51.328 218.882 52.187 218.361 52.9205C217.859 53.654 217.155 54.2331 216.248 54.6577C215.34 55.0631 214.269 55.2658 213.034 55.2658Z" fill="#D9D5C3"/>
<path d="M195.669 54.9184V39.1093H199.723V42.9023L199.433 42.3522C199.78 41.0203 200.35 40.1227 201.141 39.6594C201.952 39.1768 202.908 38.9355 204.008 38.9355H204.934V42.6996H203.574C202.512 42.6996 201.653 43.0278 200.997 43.6841C200.34 44.3211 200.012 45.2283 200.012 46.4058V54.9184H195.669Z" fill="#D9D5C3"/>
<path d="M185.582 55.2658C183.903 55.2658 182.445 54.899 181.21 54.1655C179.975 53.4127 179.019 52.4089 178.343 51.1542C177.668 49.8995 177.33 48.5097 177.33 46.9848C177.33 45.402 177.678 43.9928 178.372 42.7574C179.087 41.522 180.042 40.5472 181.239 39.833C182.436 39.1188 183.787 38.7617 185.293 38.7617C186.547 38.7617 187.657 38.9644 188.622 39.3698C189.587 39.7558 190.398 40.306 191.055 41.0202C191.73 41.7344 192.242 42.5644 192.589 43.5103C192.937 44.4368 193.11 45.4502 193.11 46.5505C193.11 46.8593 193.091 47.1682 193.052 47.477C193.033 47.7666 192.985 48.0175 192.908 48.2298H181.065V45.0448H190.446L188.391 46.5505C188.584 45.7205 188.574 44.9869 188.362 44.3499C188.149 43.6936 187.773 43.1821 187.233 42.8153C186.711 42.4293 186.065 42.2363 185.293 42.2363C184.54 42.2363 183.893 42.4196 183.353 42.7864C182.812 43.1532 182.407 43.6936 182.137 44.4078C181.866 45.1221 181.76 45.9907 181.818 47.0138C181.741 47.9017 181.847 48.6835 182.137 49.3591C182.426 50.0347 182.87 50.5655 183.468 50.9516C184.067 51.3183 184.791 51.5017 185.64 51.5017C186.412 51.5017 187.068 51.3473 187.609 51.0384C188.169 50.7296 188.603 50.3049 188.912 49.7644L192.386 51.4148C192.078 52.187 191.585 52.8626 190.91 53.4416C190.253 54.0207 189.472 54.4744 188.564 54.8025C187.657 55.1114 186.663 55.2658 185.582 55.2658Z" fill="#D9D5C3"/>
<path d="M169.262 55.2658C167.525 55.2658 166.01 54.8604 164.716 54.0497C163.442 53.2197 162.574 52.1097 162.11 50.7199L165.295 49.2143C165.701 50.0636 166.251 50.7296 166.946 51.2122C167.641 51.6947 168.413 51.936 169.262 51.936C169.88 51.936 170.353 51.8105 170.681 51.5596C171.009 51.3087 171.173 50.9612 171.173 50.5172C171.173 50.2856 171.115 50.0926 170.999 49.9382C170.884 49.7644 170.71 49.61 170.478 49.4749C170.247 49.3398 169.957 49.2239 169.61 49.1274L166.917 48.3746C165.623 48.0079 164.629 47.4191 163.934 46.6084C163.24 45.7784 162.892 44.8036 162.892 43.684C162.892 42.6995 163.143 41.8405 163.645 41.107C164.147 40.3735 164.851 39.8041 165.759 39.3987C166.666 38.9741 167.708 38.7617 168.886 38.7617C170.43 38.7617 171.781 39.1285 172.939 39.862C174.117 40.5762 174.947 41.5896 175.429 42.9022L172.215 44.4078C171.984 43.7515 171.559 43.2304 170.941 42.8443C170.343 42.4389 169.658 42.2363 168.886 42.2363C168.326 42.2363 167.882 42.3521 167.554 42.5837C167.245 42.8153 167.091 43.1338 167.091 43.5392C167.091 43.7515 167.148 43.9446 167.264 44.1183C167.38 44.292 167.563 44.4465 167.814 44.5816C168.085 44.7167 168.413 44.8422 168.799 44.958L171.318 45.7108C172.63 46.0969 173.634 46.6856 174.329 47.477C175.024 48.2491 175.372 49.2046 175.372 50.3435C175.372 51.328 175.111 52.187 174.59 52.9205C174.088 53.654 173.383 54.2331 172.476 54.6577C171.569 55.0631 170.498 55.2658 169.262 55.2658Z" fill="#D9D5C3"/>
<path d="M152.052 55.2658C150.488 55.2658 149.06 54.9087 147.767 54.1945C146.493 53.4803 145.47 52.5055 144.698 51.2701C143.945 50.0154 143.568 48.5966 143.568 47.0138C143.568 45.4116 143.945 43.9928 144.698 42.7574C145.47 41.522 146.493 40.5472 147.767 39.833C149.06 39.1188 150.488 38.7617 152.052 38.7617C153.616 38.7617 155.034 39.1188 156.308 39.833C157.582 40.5472 158.596 41.522 159.349 42.7574C160.121 43.9928 160.507 45.4116 160.507 47.0138C160.507 48.5966 160.121 50.0154 159.349 51.2701C158.596 52.5055 157.582 53.4803 156.308 54.1945C155.034 54.9087 153.616 55.2658 152.052 55.2658ZM152.052 51.3569C152.843 51.3569 153.529 51.1735 154.108 50.8068C154.706 50.44 155.169 49.9285 155.498 49.2722C155.845 48.6159 156.019 47.8631 156.019 47.0138C156.019 46.1644 155.845 45.4213 155.498 44.7843C155.169 44.128 154.706 43.6164 154.108 43.2497C153.529 42.8636 152.843 42.6706 152.052 42.6706C151.261 42.6706 150.566 42.8636 149.967 43.2497C149.369 43.6164 148.896 44.128 148.549 44.7843C148.22 45.4213 148.056 46.1644 148.056 47.0138C148.056 47.8631 148.22 48.6159 148.549 49.2722C148.896 49.9285 149.369 50.44 149.967 50.8068C150.566 51.1735 151.261 51.3569 152.052 51.3569Z" fill="#D9D5C3"/>
<path d="M136.686 54.9186V33H141.029V54.9186H136.686Z" fill="#D9D5C3"/>
<path d="M124.887 55.266C123.343 55.266 121.905 54.9861 120.573 54.4263C119.26 53.8665 118.112 53.0848 117.127 52.081C116.143 51.0773 115.371 49.8998 114.811 48.5486C114.27 47.1974 114 45.7207 114 44.1185C114 42.5164 114.27 41.0397 114.811 39.6885C115.351 38.318 116.114 37.1405 117.098 36.156C118.083 35.1523 119.231 34.3802 120.544 33.8397C121.876 33.2799 123.323 33 124.887 33C126.45 33 127.85 33.2606 129.085 33.7818C130.34 34.303 131.402 34.9979 132.27 35.8665C133.139 36.7351 133.757 37.7003 134.123 38.7619L130.157 40.6729C129.79 39.6306 129.143 38.7716 128.217 38.096C127.309 37.4011 126.199 37.0536 124.887 37.0536C123.613 37.0536 122.493 37.3528 121.528 37.9512C120.563 38.5496 119.81 39.3796 119.27 40.4413C118.749 41.4837 118.488 42.7094 118.488 44.1185C118.488 45.5276 118.749 46.763 119.27 47.8247C119.81 48.8864 120.563 49.7164 121.528 50.3148C122.493 50.9132 123.613 51.2124 124.887 51.2124C126.199 51.2124 127.309 50.8746 128.217 50.199C129.143 49.5041 129.79 48.6354 130.157 47.5931L134.123 49.5041C133.757 50.5657 133.139 51.5309 132.27 52.3995C131.402 53.2681 130.34 53.9631 129.085 54.4842C127.85 55.0054 126.45 55.266 124.887 55.266Z" fill="#D9D5C3"/>
<path fill-rule="evenodd" clip-rule="evenodd" d="M35.1225 16.0229L46 56.6184V13.208C47.3145 13.0705 48.649 13 50 13C51.351 13 52.6855 13.0705 54 13.208V56.6164L64.877 16.0227C67.4323 17.111 69.8439 18.471 72.0757 20.0666L61.7273 58.6875L79.7885 27.4045C80.9368 28.8523 81.9818 30.3857 82.9124 31.9937L61.8559 68.4647C58.4344 66.2716 54.3657 65 50 65C48.3786 65 46.7982 65.1754 45.2766 65.5083L32.367 17.3302C33.2649 16.859 34.184 16.4226 35.1225 16.0229ZM20.2111 27.405L38.2723 58.688L27.9239 20.0669C29.3359 19.0573 30.82 18.142 32.367 17.3302L45.2762 65.5084C43.3718 65.925 41.5597 66.5884 39.875 67.4632L18.2825 30.0643C18.8876 29.1494 19.5312 28.2622 20.2111 27.405ZM12.6455 43.9888L31.3434 62.6867L15.4497 35.158C16.2653 33.3822 17.2138 31.6801 18.2824 30.0644L39.8747 67.4634C32.8195 71.1273 28 78.5008 28 87C28 90.6511 28.8894 94.0945 30.4634 97.1253L15.803 105.59C15.3645 104.687 14.9605 103.765 14.593 102.824L21.687 98.7286L13.875 100.822C13.055 98.3148 12.4888 95.693 12.2066 92.9867L19.621 91H12.0517C12.0174 90.3377 12 89.6709 12 89V83H19.6202L12 80.9582V72.676L21.6908 75.2726L12 69.6776V60.44L25.6828 68.3398L12 54.657V51C12 48.6047 12.2216 46.2612 12.6455 43.9888ZM19.5742 111.769L25.6857 105.658L18.2806 109.933C17.3636 108.546 16.5351 107.096 15.8031 105.59L30.4636 97.1256C33.1274 102.255 37.752 106.202 43.3444 107.975L38.7043 125.293C37.7421 124.994 36.7964 124.657 35.8687 124.285L38.2731 115.312L33.6532 123.314C31.2271 122.156 28.9431 120.749 26.8344 119.124L31.3448 111.312L25.0205 117.637C23.0066 115.878 21.18 113.911 19.5742 111.769ZM46 126.792V117.384L43.5687 126.458C41.9081 126.175 40.2842 125.784 38.7045 125.293L43.3448 107.975C45.4443 108.641 47.6802 109 50 109C51.6213 109 53.2017 108.825 54.7232 108.492L59.3708 125.836C58.4055 126.081 57.4254 126.289 56.4322 126.458L54 117.381V126.792C52.6855 126.929 51.351 127 50 127C48.649 127 47.3145 126.929 46 126.792ZM66.3472 123.314L61.7284 115.314L64.1322 124.285C62.5925 124.902 61.0029 125.422 59.3713 125.836L54.724 108.492C64.604 106.33 72 97.5286 72 87C72 81.2849 69.8208 76.0788 66.248 72.1673L87.9957 50.4192C87.9986 50.6124 88 50.806 88 51V54.657L74.3109 68.3461L88 60.4427V69.6803L78.3138 75.2726L88 72.6772V80.9594L80.3845 83H88V89C88 89.6709 87.9826 90.3377 87.9483 91H80.3846L87.7935 92.9852C87.5115 95.6915 86.9453 98.3134 86.1255 100.82L78.3167 98.7281L85.4078 102.822C84.4271 105.333 83.187 107.713 81.7206 109.931L74.308 105.651L80.4258 111.769C78.82 113.911 76.9934 115.878 74.9795 117.637L68.6563 111.313L73.1659 119.124C71.0572 120.748 68.7732 122.156 66.3472 123.314ZM84.55 35.1573L68.655 62.6883L87.3545 43.9888C87.744 46.0771 87.9628 48.2254 87.9956 50.4187L66.2475 72.1668C64.954 70.7507 63.4777 69.5042 61.8561 68.4648L82.9125 31.9937C83.5058 33.0189 84.0526 34.0744 84.55 35.1573Z" fill="#D96151"/>
<path d="M63.9369 92.5019C62.6555 95.7269 60.2954 98.4079 57.2589 100.088C54.2223 101.768 50.6972 102.343 47.2841 101.716C43.871 101.088 40.7811 99.2962 38.5409 96.6457C36.3008 93.9953 35.0489 90.6501 34.9986 87.1801C34.9484 83.7102 36.1028 80.3301 38.2653 77.6159C40.4278 74.9017 43.4645 73.0213 46.858 72.2951C50.2514 71.5688 53.7918 72.0417 56.8757 73.6331C59.9596 75.2245 62.3963 77.836 63.7707 81.0226L56.8839 83.9927C56.1967 82.3994 54.9783 81.0937 53.4364 80.298C51.8944 79.5023 50.1243 79.2659 48.4275 79.629C46.7308 79.9921 45.2124 80.9323 44.1312 82.2894C43.05 83.6465 42.4727 85.3365 42.4979 87.0715C42.523 88.8065 43.1489 90.4791 44.269 91.8043C45.3891 93.1295 46.934 94.0254 48.6406 94.3392C50.3471 94.6531 52.1097 94.3655 53.628 93.5254C55.1462 92.6854 56.3263 91.3449 56.967 89.7324L63.9369 92.5019Z" fill="#D9D5C3"/>
<path fill-rule="evenodd" clip-rule="evenodd" d="M6 50V90C6 114.3 25.6995 134 50 134C74.3005 134 94 114.3 94 90V50C94 25.7004 74.3005 6 50 6C25.6995 6 6 25.7004 6 50ZM0 50V90C0 117.613 22.3857 140 50 140C77.6143 140 100 117.613 100 90V50C100 22.3867 77.6143 0 50 0C22.3857 0 0 22.3867 0 50Z" fill="#D9D5C3"/>
</svg>
