<svg width="1114" height="233" viewBox="0 0 1114 233" fill="none" xmlns="http://www.w3.org/2000/svg">
<path d="M7.88687e-07 116.006C1.22427e-06 180.075 51.9378 232.013 116.006 232.013L116.006 -7.88687e-07C51.9378 -3.53107e-07 3.53107e-07 51.9379 7.88687e-07 116.006Z" fill="url(#paint0_radial_1635_2659)"/>
<path d="M207.591 118.996C207.591 68.4159 166.587 27.4123 116.007 27.4123L116.007 210.58C166.587 210.58 207.591 169.577 207.591 118.996Z" fill="#6610F5"/>
<path d="M1069.74 146.727C1069.74 153.051 1071.44 157.819 1074.85 161.03C1078.26 164.144 1082.29 165.701 1086.96 165.701C1091.73 165.701 1095.58 164.63 1098.49 162.49C1101.41 160.349 1102.87 157.479 1102.87 153.878C1102.87 150.181 1101.61 147.164 1099.08 144.829C1096.65 142.494 1093.68 140.596 1090.17 139.137C1086.67 137.677 1083.12 136.169 1079.52 134.612C1076.02 133.055 1073 130.769 1070.47 127.752C1068.04 124.736 1066.82 120.698 1066.82 115.638C1066.82 110.578 1069.06 106.394 1073.54 103.086C1078.11 99.6803 1083.36 97.9775 1089.3 97.9775C1097.76 97.9775 1104.38 99.3398 1109.15 102.064C1109.15 106.54 1108.57 112.768 1107.4 120.747L1105.65 120.309C1105.65 113.887 1104.19 109.216 1101.27 106.297C1098.35 103.378 1094.8 101.918 1090.61 101.918C1086.53 101.918 1083.22 102.989 1080.69 105.129C1078.26 107.27 1077.04 110.189 1077.04 113.887C1077.04 117.487 1078.26 120.406 1080.69 122.644C1083.22 124.785 1086.23 126.585 1089.74 128.044C1093.24 129.504 1096.74 131.061 1100.25 132.715C1103.85 134.272 1106.86 136.558 1109.3 139.575C1111.83 142.494 1113.09 146.094 1113.09 150.375C1113.09 156.603 1110.66 161.419 1105.79 164.825C1100.93 168.231 1094.5 169.933 1086.53 169.933C1078.64 169.933 1071.98 167.841 1066.53 163.657C1066.53 158.792 1067.02 153.051 1067.99 146.435L1069.74 146.727Z" fill="white"/>
<path d="M1009.73 146.727C1009.73 153.051 1011.44 157.819 1014.84 161.03C1018.25 164.144 1022.29 165.701 1026.96 165.701C1031.73 165.701 1035.57 164.63 1038.49 162.49C1041.41 160.349 1042.87 157.479 1042.87 153.878C1042.87 150.181 1041.6 147.164 1039.07 144.829C1036.64 142.494 1033.67 140.596 1030.17 139.137C1026.67 137.677 1023.11 136.169 1019.51 134.612C1016.01 133.055 1012.99 130.769 1010.46 127.752C1008.03 124.736 1006.82 120.698 1006.82 115.638C1006.82 110.578 1009.05 106.394 1013.53 103.086C1018.1 99.6803 1023.36 97.9775 1029.29 97.9775C1037.76 97.9775 1044.37 99.3398 1049.14 102.064C1049.14 106.54 1048.56 112.768 1047.39 120.747L1045.64 120.309C1045.64 113.887 1044.18 109.216 1041.26 106.297C1038.34 103.378 1034.79 101.918 1030.61 101.918C1026.52 101.918 1023.21 102.989 1020.68 105.129C1018.25 107.27 1017.03 110.189 1017.03 113.887C1017.03 117.487 1018.25 120.406 1020.68 122.644C1023.21 124.785 1026.23 126.585 1029.73 128.044C1033.23 129.504 1036.74 131.061 1040.24 132.715C1043.84 134.272 1046.86 136.558 1049.29 139.575C1051.82 142.494 1053.08 146.094 1053.08 150.375C1053.08 156.603 1050.65 161.419 1045.79 164.825C1040.92 168.231 1034.5 169.933 1026.52 169.933C1018.64 169.933 1011.97 167.841 1006.52 163.657C1006.52 158.792 1007.01 153.051 1007.98 146.435L1009.73 146.727Z" fill="white"/>
<path d="M991.907 131.547H944.034V134.028C944.034 144.343 946.223 152.224 950.602 157.673C954.981 163.025 960.43 165.701 966.949 165.701C976.679 165.701 983.685 161.809 987.967 154.024L990.156 155.192C985.096 165.02 976.631 169.933 964.76 169.933C956.002 169.933 948.51 166.771 942.282 160.446C936.055 154.122 932.941 145.608 932.941 134.904C932.941 124.103 935.666 115.249 941.115 108.34C946.661 101.432 954.008 97.9775 963.154 97.9775C972.398 97.9775 979.501 101.14 984.464 107.465C989.426 113.692 991.907 121.72 991.907 131.547ZM963.592 100.897C957.948 100.897 953.472 103.329 950.164 108.194C946.953 112.962 945.007 119.336 944.326 127.315H980.669C979.988 109.703 974.295 100.897 963.592 100.897Z" fill="white"/>
<path d="M919.314 97.2464C921.747 97.2464 923.887 97.7815 925.736 98.8519C927.585 99.9222 928.509 101.382 928.509 103.231C928.509 105.079 927.925 106.539 926.758 107.609C925.59 108.68 924.277 109.215 922.817 109.215C921.358 109.215 919.509 108.582 917.271 107.317C915.13 106.052 912.843 105.42 910.411 105.42C906.616 105.42 903.502 108.923 901.07 115.929C898.734 122.934 897.567 131.059 897.567 140.303C897.567 152.758 898.199 160.299 899.464 162.926C899.853 163.802 900.583 164.629 901.654 165.407C902.724 166.089 903.843 166.478 905.011 166.575C906.178 166.672 907.832 166.721 909.973 166.721L910.265 168.473H874.798L875.09 166.721C878.203 166.721 880.441 166.575 881.804 166.283C883.263 165.894 884.48 164.678 885.453 162.634C886.426 160.591 886.961 158.061 887.058 155.045C887.253 151.931 887.35 147.017 887.35 140.303V131.838C887.35 118.313 886.961 110.626 886.182 108.777C885.501 106.928 884.869 105.469 884.285 104.398C883.701 103.328 882.825 102.598 881.658 102.209C879.517 101.625 876.695 101.333 873.192 101.333L872.9 99.7276C881.171 98.56 889.393 97.9761 897.567 97.9761V119.432C898.637 112.523 901.021 107.123 904.719 103.231C908.513 99.2411 913.379 97.2464 919.314 97.2464Z" fill="white"/>
<path d="M826.971 66.2974C852.756 66.2974 865.649 76.1251 865.649 95.7803C865.649 104.44 862.584 111.544 856.454 117.09C850.421 122.636 843.22 125.409 834.852 125.409C826.484 125.409 819.381 124.047 813.543 121.322V135.48C813.543 145.892 813.835 152.995 814.419 156.79C815.1 160.584 816.024 162.968 817.192 163.941C819.43 165.79 822.981 166.715 827.846 166.715L828.138 168.466H788.73L789.022 166.715C793.888 166.715 797.439 165.79 799.677 163.941C802.11 161.898 803.326 152.411 803.326 135.48V99.2833C803.326 88.8718 802.985 81.7687 802.304 77.9738C801.72 74.179 800.845 71.795 799.677 70.822C797.439 68.9732 793.888 68.0489 789.022 68.0489L788.73 66.2974H826.971ZM813.543 69.6544V117.674C818.603 120.398 824.538 121.76 831.349 121.76C838.258 121.76 843.804 119.62 847.988 115.338C852.172 110.96 854.264 104.44 854.264 95.7803C854.264 84.9797 850.761 77.7792 843.756 74.179C838.015 71.1626 831.106 69.6544 823.03 69.6544H813.543Z" fill="white"/>
<path d="M695.445 146.727C695.445 153.051 697.148 157.819 700.554 161.03C703.959 164.144 707.998 165.701 712.668 165.701C717.436 165.701 721.279 164.63 724.199 162.49C727.118 160.349 728.577 157.479 728.577 153.878C728.577 150.181 727.312 147.164 724.782 144.829C722.35 142.494 719.382 140.596 715.879 139.137C712.376 137.677 708.825 136.169 705.224 134.612C701.721 133.055 698.705 130.769 696.175 127.752C693.743 124.736 692.526 120.698 692.526 115.638C692.526 110.578 694.764 106.394 699.24 103.086C703.814 99.6803 709.068 97.9775 715.003 97.9775C723.469 97.9775 730.085 99.3398 734.853 102.064C734.853 106.54 734.269 112.768 733.102 120.747L731.35 120.309C731.35 113.887 729.891 109.216 726.972 106.297C724.053 103.378 720.501 101.918 716.317 101.918C712.23 101.918 708.922 102.989 706.392 105.129C703.959 107.27 702.743 110.189 702.743 113.887C702.743 117.487 703.959 120.406 706.392 122.644C708.922 124.785 711.938 126.585 715.441 128.044C718.944 129.504 722.447 131.061 725.95 132.715C729.55 134.272 732.567 136.558 734.999 139.575C737.529 142.494 738.794 146.094 738.794 150.375C738.794 156.603 736.361 161.419 731.496 164.825C726.631 168.231 720.209 169.933 712.23 169.933C704.349 169.933 697.683 167.841 692.234 163.657C692.234 158.792 692.721 153.051 693.694 146.435L695.445 146.727Z" fill="white"/>
<path d="M675.722 97.2464C678.155 97.2464 680.296 97.7815 682.144 98.8519C683.993 99.9222 684.918 101.382 684.918 103.231C684.918 105.079 684.334 106.539 683.166 107.609C681.998 108.68 680.685 109.215 679.225 109.215C677.766 109.215 675.917 108.582 673.679 107.317C671.538 106.052 669.252 105.42 666.819 105.42C663.024 105.42 659.911 108.923 657.478 115.929C655.143 122.934 653.975 131.059 653.975 140.303C653.975 152.758 654.607 160.299 655.872 162.926C656.262 163.802 656.991 164.629 658.062 165.407C659.132 166.089 660.251 166.478 661.419 166.575C662.586 166.672 664.241 166.721 666.381 166.721L666.673 168.473H631.206L631.498 166.721C634.612 166.721 636.85 166.575 638.212 166.283C639.671 165.894 640.888 164.678 641.861 162.634C642.834 160.591 643.369 158.061 643.466 155.045C643.661 151.931 643.758 147.017 643.758 140.303V131.838C643.758 118.313 643.369 110.626 642.591 108.777C641.909 106.928 641.277 105.469 640.693 104.398C640.109 103.328 639.234 102.598 638.066 102.209C635.925 101.625 633.103 101.333 629.601 101.333L629.309 99.7276C637.579 98.56 645.802 97.9761 653.975 97.9761V119.432C655.045 112.523 657.429 107.123 661.127 103.231C664.922 99.2411 669.787 97.2464 675.722 97.2464Z" fill="white"/>
<path d="M617.611 131.547H569.738V134.028C569.738 144.343 571.927 152.224 576.306 157.673C580.685 163.025 586.134 165.701 592.653 165.701C602.383 165.701 609.389 161.809 613.671 154.024L615.86 155.192C610.8 165.02 602.335 169.933 590.464 169.933C581.706 169.933 574.214 166.771 567.987 160.446C561.759 154.122 558.646 145.608 558.646 134.904C558.646 124.103 561.37 115.249 566.819 108.34C572.365 101.432 579.712 97.9775 588.858 97.9775C598.102 97.9775 605.205 101.14 610.168 107.465C615.13 113.692 617.611 121.72 617.611 131.547ZM589.296 100.897C583.653 100.897 579.177 103.329 575.868 108.194C572.657 112.962 570.711 119.336 570.03 127.315H606.373C605.692 109.703 599.999 100.897 589.296 100.897Z" fill="white"/>
<path d="M503.31 146.727C503.31 153.051 505.012 157.819 508.418 161.03C511.824 164.144 515.862 165.701 520.532 165.701C525.3 165.701 529.144 164.63 532.063 162.49C534.982 160.349 536.441 157.479 536.441 153.878C536.441 150.181 535.177 147.164 532.647 144.829C530.214 142.494 527.246 140.596 523.743 139.137C520.24 137.677 516.689 136.169 513.089 134.612C509.586 133.055 506.569 130.769 504.039 127.752C501.607 124.736 500.391 120.698 500.391 115.638C500.391 110.578 502.629 106.394 507.104 103.086C511.678 99.6803 516.932 97.9775 522.868 97.9775C531.333 97.9775 537.95 99.3398 542.718 102.064C542.718 106.54 542.134 112.768 540.966 120.747L539.215 120.309C539.215 113.887 537.755 109.216 534.836 106.297C531.917 103.378 528.365 101.918 524.181 101.918C520.095 101.918 516.786 102.989 514.256 105.129C511.824 107.27 510.607 110.189 510.607 113.887C510.607 117.487 511.824 120.406 514.256 122.644C516.786 124.785 519.803 126.585 523.306 128.044C526.808 129.504 530.311 131.061 533.814 132.715C537.415 134.272 540.431 136.558 542.864 139.575C545.393 142.494 546.658 146.094 546.658 150.375C546.658 156.603 544.226 161.419 539.361 164.825C534.495 168.231 528.073 169.933 520.095 169.933C512.213 169.933 505.548 167.841 500.099 163.657C500.099 158.792 500.585 153.051 501.558 146.435L503.31 146.727Z" fill="white"/>
<path d="M420.957 134.028C420.957 123.812 423.876 115.249 429.714 108.34C435.553 101.432 443.483 97.9775 453.505 97.9775C463.527 97.9775 471.603 101.432 477.734 108.34C483.864 115.249 486.929 123.812 486.929 134.028C486.929 144.245 483.961 152.808 478.026 159.717C472.187 166.528 464.257 169.933 454.235 169.933C444.213 169.933 436.136 166.479 430.006 159.571C423.973 152.662 420.957 144.148 420.957 134.028ZM437.742 157.673C441.634 163.901 447.132 167.014 454.235 167.014C461.338 167.014 466.69 163.949 470.29 157.819C473.987 151.689 475.836 143.807 475.836 134.174C475.836 124.444 473.89 116.465 469.998 110.238C466.106 104.01 460.608 100.897 453.505 100.897C446.499 100.897 441.148 104.01 437.45 110.238C433.85 116.368 432.05 124.249 432.05 133.882C432.05 143.516 433.947 151.446 437.742 157.673Z" fill="white"/>
<path d="M398.072 61.0481V143.075C398.072 153.876 398.704 160.541 399.969 163.071C401.234 165.503 404.737 166.72 410.478 166.72L410.77 168.471H375.011L375.303 166.72C381.141 166.72 384.692 165.503 385.957 163.071C387.222 160.638 387.855 153.973 387.855 143.075V87.32C387.855 76.5194 387.271 70 386.103 67.762C385.714 67.0809 384.984 66.3998 383.914 65.7187C382.844 65.0375 381.676 64.6483 380.411 64.551C379.243 64.4537 377.541 64.4051 375.303 64.4051L375.011 62.7996C382.309 61.6319 389.995 61.0481 398.072 61.0481Z" fill="white"/>
<path d="M366.996 157.231C355.806 165.696 342.378 169.929 326.712 169.929C311.143 169.929 298.591 164.917 289.056 154.895C279.52 144.873 274.752 132.369 274.752 117.385C274.752 102.4 279.325 89.9452 288.472 80.0202C297.716 69.9979 310.122 64.9868 325.69 64.9868C332.891 64.9868 340.091 65.9598 347.292 67.9059C354.492 69.852 359.941 71.8467 363.639 73.8901V92.5723L362.033 92.2804C359.601 83.5231 355.368 77.3443 349.335 73.7441C343.4 70.1439 335.518 68.3438 325.69 68.3438C313.235 68.3438 303.748 72.8684 297.229 81.9176C290.71 90.8695 287.45 102.595 287.45 117.093C287.45 131.591 290.904 143.316 297.813 152.268C304.721 161.22 314.403 165.696 326.858 165.696C335.81 165.696 343.254 164.626 349.189 162.485C355.222 160.247 361.157 157.036 366.996 152.852V157.231Z" fill="white"/>
<defs>
<radialGradient id="paint0_radial_1635_2659" cx="0" cy="0" r="1" gradientUnits="userSpaceOnUse" gradientTransform="translate(116.006 116.006) rotate(180) scale(116.006 116.006)">
<stop stop-color="#6610F5"/>
<stop offset="1" stop-color="#6610F5" stop-opacity="0"/>
</radialGradient>
</defs>
</svg>
