<svg width="530" height="336" viewBox="0 0 530 336" fill="none" xmlns="http://www.w3.org/2000/svg">
<path d="M313 211L302 211.5L291 227C292 231.5 302 239.9 304 245.5C306.5 252.5 291.5 276 288 291.5C283.709 310.5 293.167 327.5 297.5 334.5H352C347.5 331.5 328.235 312.5 330 292.5C331.5 275.5 331 265 328 255.5C324.838 245.487 320.5 244 320 240.5C319.6 237.7 325.5 230.5 325.5 225.5L313 211Z" fill="#7000FF"/>
<path d="M255.5 135C249.91 129.41 242 121.999 242.5 103.999C243 85.9993 255 77.4993 259 77.9993C262.2 78.3993 264.333 83.1664 265 85.4999C266.667 83.4999 271.2 80.0999 276 82.4999C282 85.4999 291.5 90.9986 291 103.999C290.5 117 285 114.5 287 119.5C289 124.5 296.5 131.5 295 133C293.5 134.5 290 138.501 286.5 137C283 135.499 278.28 125.5 271 125.5C267 125.5 262 131.5 262 135C262 137.798 262.255 140.917 263.687 143.076C264.131 143.544 264.569 144.018 265 144.5C264.479 144.099 264.046 143.618 263.687 143.076C261.184 140.441 258.472 137.972 255.5 135Z" fill="black"/>
<path fill-rule="evenodd" clip-rule="evenodd" d="M250.98 85.3355C247.696 89.3109 244.737 95.509 244.499 104.055C244.258 112.731 246.041 118.73 248.473 123.197C250.812 127.494 253.795 130.472 256.515 133.187C256.649 133.321 256.782 133.453 256.914 133.586C257.961 134.632 259.005 135.644 260.032 136.636C260.008 136.068 260 135.518 260 135C260 133.693 260.452 132.342 261.058 131.139C261.678 129.908 262.534 128.684 263.516 127.597C264.497 126.511 265.646 125.514 266.879 124.776C268.097 124.047 269.517 123.5 271 123.5C275.561 123.5 279.083 126.614 281.625 129.317C282.354 130.093 283.137 130.989 283.84 131.794C284.31 132.332 284.744 132.829 285.103 133.222C286.183 134.405 286.866 134.981 287.288 135.162C288.105 135.512 289.096 135.325 290.391 134.461C291.411 133.781 292.291 132.903 293.031 132.149C292.997 132.083 292.959 132.009 292.914 131.93C292.472 131.13 291.702 130.07 290.717 128.769C290.532 128.524 290.339 128.27 290.141 128.01C288.367 125.68 286.157 122.777 285.143 120.243C284.548 118.754 284.356 117.431 284.83 116.119C285.042 115.529 285.354 115.046 285.629 114.662C285.766 114.47 285.913 114.278 286.046 114.104L286.057 114.089C286.191 113.913 286.318 113.748 286.448 113.57C287.377 112.298 288.765 110.066 289.002 103.922C289.451 92.2439 281.064 87.2681 275.106 84.2888C273.341 83.4065 271.629 83.5637 270.087 84.1991C268.495 84.855 267.199 85.9857 266.537 86.7803L264.116 89.6852L263.077 86.0493C262.786 85.0322 262.162 83.4552 261.283 82.1297C260.348 80.7194 259.449 80.071 258.752 79.9838C258.418 79.9421 257.397 80.1055 255.827 81.0388C254.348 81.9181 252.629 83.3392 250.98 85.3355ZM262.125 144.336C262.537 144.93 263.031 145.48 263.622 145.959C264.12 146.523 264.566 147.069 265.009 147.611L265.031 147.637C265.502 148.213 265.987 148.807 266.488 149.344C267.51 150.441 268.73 151.454 270.474 151.929L270.571 151.956L270.671 151.973C276.065 152.872 279.346 150.354 281.244 148.602C281.432 150.396 281.334 153.151 280.904 156.202C280.379 159.936 279.418 163.692 278.211 166.106C278.095 166.338 277.98 166.568 277.866 166.795C275.595 171.327 273.756 174.997 273.688 179.155C273.615 183.585 275.522 188.259 279.808 195.066C284.388 202.341 289.524 205.208 293.7 206.807C294.687 207.185 295.615 207.49 296.425 207.757L296.499 207.781C297.349 208.061 298.03 208.287 298.606 208.527C299.615 208.947 299.928 209.259 300.054 209.512C300.048 209.546 300.04 209.59 300.026 209.648C299.961 209.918 299.819 210.316 299.564 210.853C299.055 211.923 298.216 213.307 297.097 214.926C294.869 218.15 291.69 222.086 288.31 225.93C284.935 229.77 281.4 233.473 278.478 236.234C277.014 237.618 275.732 238.737 274.718 239.514C274.21 239.904 273.801 240.182 273.494 240.36C273.367 240.433 273.28 240.477 273.226 240.502C273.136 240.482 272.932 240.423 272.592 240.239C272.063 239.95 271.378 239.447 270.577 238.68C268.979 237.152 267.086 234.736 265.216 231.432C261.485 224.84 257.942 214.879 256.995 201.855C256.012 188.342 257.868 179.677 260.151 174.351C262.469 168.941 265.163 167.089 265.743 166.857C266.318 166.627 267.529 166.516 268.918 166.573C269.562 166.6 270.158 166.658 270.615 166.726C270.845 166.759 271.021 166.793 271.139 166.82C271.171 166.827 271.195 166.833 271.211 166.838C272.178 167.254 273.312 166.847 273.789 165.894C274.283 164.906 273.883 163.705 272.895 163.211C272.587 163.057 272.25 162.971 272.041 162.923C271.787 162.864 271.499 162.812 271.197 162.768C270.592 162.679 269.855 162.608 269.082 162.577C267.638 162.517 265.682 162.573 264.257 163.143C262.337 163.911 259.031 166.81 256.474 172.775C253.882 178.824 251.988 188.159 253.005 202.145C253.994 215.734 257.7 226.273 261.735 233.403C263.749 236.96 265.868 239.711 267.811 241.57C268.781 242.498 269.749 243.245 270.68 243.752C271.566 244.234 272.645 244.623 273.748 244.485C274.415 244.401 275.04 244.087 275.498 243.822C276.01 243.525 276.569 243.135 277.151 242.689C278.319 241.794 279.713 240.57 281.225 239.141C284.257 236.277 287.878 232.481 291.315 228.571C294.748 224.665 298.038 220.6 300.388 217.2C301.558 215.506 302.535 213.921 303.177 212.569C303.497 211.895 303.763 211.219 303.916 210.577C304.06 209.977 304.165 209.169 303.897 208.368C303.239 206.391 301.608 205.443 300.143 204.834C299.399 204.525 298.566 204.25 297.749 203.981L297.701 203.966C296.876 203.694 296.027 203.415 295.131 203.072C291.584 201.714 287.22 199.331 283.193 192.935C278.978 186.241 277.635 182.415 277.687 179.22C277.74 175.992 279.19 173.093 281.719 168.034L281.789 167.895C283.275 164.923 284.314 160.68 284.865 156.76C285.41 152.89 285.539 148.911 284.94 146.515C284.771 145.839 284.522 145.051 284.039 144.453C283.764 144.112 283.351 143.755 282.768 143.577C282.18 143.398 281.638 143.469 281.229 143.602C280.538 143.827 279.979 144.317 279.676 144.588C279.5 144.746 279.25 144.984 279.009 145.213C278.836 145.377 278.668 145.537 278.535 145.659C277.021 147.057 274.973 148.597 271.436 148.044C270.742 147.834 270.153 147.411 269.414 146.617C269.018 146.192 268.615 145.701 268.128 145.106L268.089 145.058C267.623 144.488 267.095 143.842 266.491 143.167C266.088 142.716 265.68 142.274 265.268 141.838C264.272 140.224 264 137.733 264 135C264 134.557 264.173 133.845 264.63 132.939C265.073 132.06 265.716 131.128 266.484 130.278C267.254 129.426 268.104 128.705 268.933 128.208C269.779 127.703 270.483 127.5 271 127.5C273.72 127.5 276.198 129.385 278.711 132.057C279.456 132.849 280.076 133.563 280.693 134.273C281.162 134.812 281.629 135.35 282.148 135.918C283.165 137.032 284.384 138.269 285.712 138.838C288.395 139.989 290.905 138.926 292.61 137.789C294.075 136.812 295.339 135.516 296.084 134.75C296.209 134.622 296.32 134.509 296.414 134.414C297.265 133.563 297.26 132.487 297.134 131.821C297.009 131.164 296.71 130.527 296.414 129.992C295.81 128.901 294.861 127.617 293.908 126.356C293.73 126.121 293.551 125.885 293.372 125.649C291.508 123.193 289.654 120.749 288.857 118.757C288.468 117.785 288.572 117.526 288.591 117.48L288.593 117.475C288.622 117.393 288.689 117.259 288.881 116.99C288.977 116.856 289.086 116.713 289.224 116.532L289.243 116.507C289.372 116.338 289.522 116.143 289.677 115.93C291.123 113.952 292.735 110.933 292.999 104.076C293.549 89.7533 282.936 83.7318 276.895 80.7111C273.859 79.1934 270.904 79.5362 268.563 80.5008C267.54 80.9223 266.614 81.4684 265.813 82.0512C265.475 81.3412 265.076 80.6119 264.617 79.9194C263.519 78.2627 261.751 76.3276 259.248 76.0147C257.582 75.8064 255.604 76.5181 253.783 77.6004C251.871 78.7367 249.809 80.4719 247.896 82.788C244.055 87.4377 240.763 94.4896 240.501 103.944C240.242 113.268 242.164 119.974 244.96 125.11C247.583 129.929 250.935 133.271 253.631 135.96C253.785 136.113 253.936 136.265 254.086 136.414C255.352 137.681 256.534 138.821 257.659 139.907C259.229 141.421 260.69 142.832 262.125 144.336ZM245.203 184.452C245.782 185.392 245.489 186.624 244.548 187.203C241.641 188.993 238.129 191.018 234.439 193.146C231.302 194.956 228.036 196.84 224.903 198.716C217.939 202.886 211.445 207.122 207.371 210.956C204.802 213.375 202.257 217.157 200.299 220.902C199.329 222.757 198.525 224.56 197.949 226.121C197.359 227.718 197.054 228.938 196.993 229.666C196.901 230.767 195.935 231.585 194.834 231.493C193.733 231.401 192.915 230.435 193.007 229.334C193.113 228.062 193.567 226.44 194.196 224.735C194.84 222.993 195.716 221.034 196.755 219.048C198.814 215.109 201.603 210.892 204.629 208.044C209.055 203.878 215.895 199.448 222.848 195.284C226.14 193.313 229.422 191.421 232.54 189.624C236.144 187.546 239.528 185.596 242.452 183.797C243.393 183.218 244.625 183.511 245.203 184.452Z" fill="black"/>
<path d="M186.5 116.499C181.834 115.666 174 114 164.5 119C154.676 124.171 144.5 134.5 146.5 150C148.5 165.5 155.508 169.91 162 170.5C173.001 171.5 183 157.5 173 149.5C163 141.5 134.501 146 136.501 178" stroke="black" stroke-width="4" stroke-linecap="round"/>
<circle cx="137.5" cy="190.5" r="3.5" fill="black"/>
<path d="M80.5 293C82.6667 294.333 90.4 296.6 104 295" stroke="black" stroke-width="4" stroke-linecap="round"/>
<path d="M81 293C83.1667 294.333 90.9 296.6 104.5 295" stroke="black" stroke-width="4" stroke-linecap="round"/>
<path d="M85 303C87.1667 304.333 96 306.5 108 303.5" stroke="black" stroke-width="4" stroke-linecap="round"/>
<path d="M89 312C91.1667 313.333 98.5 315.5 107 313" stroke="black" stroke-width="4" stroke-linecap="round"/>
<path d="M69.9999 282C60 315.5 90 326.5 105.5 322.5" stroke="black" stroke-width="4" stroke-linecap="round"/>
<path d="M155.5 287C161.5 288 163.633 278.605 169 279.5C181 281.5 179.5 296 173 303" stroke="black" stroke-width="4" stroke-linecap="round"/>
<path d="M151.5 280.5C132.5 274.5 139 310 156.5 308.5" stroke="black" stroke-width="4" stroke-linecap="round"/>
<path d="M158.5 277.499C157.5 265 167.5 259.334 170 260.999C172.5 262.665 171 271.499 164 274" stroke="black" stroke-width="4" stroke-linecap="round"/>
<path d="M253.999 334.001C245.166 302.834 226.299 240.201 221.499 239.001C216.699 237.801 149.833 235.834 116.999 235.001M106.499 235.001C82.4996 235 75.5998 233.3 73.9998 236.5C72.3998 239.7 83.8328 271.334 88.9995 287.501M304.5 243C307.333 244.167 314.1 245.5 318.5 241.5M313 212.5C326 228.5 342.349 236.826 347 234.5C355 230.5 344 189 335.5 186.5" stroke="black" stroke-width="4" stroke-linecap="round"/>
<path d="M351.5 198.501C361.5 207.501 379.5 210.001 390.5 218.501M349.5 323.501C364 302.001 364.1 296.901 368.5 292.501C372.9 288.101 383 284.667 380.5 285.501C376 287.001 366.4 292.001 364 290.001C361 287.501 374.5 251.501 378.5 250.001C382.5 248.501 390.5 249.501 390.5 251.501C390.5 253.501 384.5 282.501 386.5 282.501C388.5 282.501 401.257 258.996 404.5 257.001C411 253.001 453 264.001 454 270.501C455 277.001 448.5 313.501 445 313.501C442.977 313.501 439.042 310.885 434 307.583M392.5 292.501C404.5 294.001 412 295.001 421.5 300.001C426.047 302.394 430.319 305.172 434 307.583M434 307.583C433.167 313.722 431.1 327.301 429.5 332.501M446.5 259.001C448.333 242.334 451.9 206.501 451.5 196.501M400 250.001C413.5 209.5 419 169.676 429.5 166.001C437.5 163.201 448 162.5 456.5 166.001" stroke="black" stroke-width="4" stroke-linecap="round"/>
<path d="M481.5 172C485.5 173.333 495 173.5 503.5 167.5" stroke="black" stroke-width="4" stroke-linecap="round"/>
<path d="M487 180C499 180 507 178 515 170.5M523 177C513.5 189 495 198 448.5 189" stroke="black" stroke-width="4" stroke-linecap="round"/>
<path d="M327.5 193C327.5 186.953 323.666 183.833 322 182.5C316.499 190.5 314.5 208 316 208C317.5 208 327.5 198.5 327.5 193Z" fill="black"/>
<path d="M322 182.5C323.666 183.833 327.5 186.953 327.5 193C327.5 198.5 317.5 208 316 208C314.5 208 316.499 190.5 322 182.5ZM322 182.5L325 179.5C331 176 343 182.5 348 177.5C351.758 173.742 356.5 164.5 356 148.5C353.833 145 348 137.5 348 135.5C348 133 354 131 354 128C354 126 346 113.5 342 107.5" stroke="black" stroke-width="4" stroke-linecap="round"/>
<path d="M358 126C364.833 125.667 376.5 121.8 370.5 103C363 79.5 344 88.5 342 103C338.8 101.8 333.167 103.833 331.5 104.999M331.5 104.999C330.5 96.9995 321 84.8994 311 86.4994C301 88.0994 298 98 298 99.4994M331.5 104.999C332 113.499 331.1 130.299 317.5 129.499C301.5 128.558 298.5 112.166 297.5 103.999" stroke="#7000FF" stroke-width="4" stroke-linecap="round"/>
<path d="M300.5 167C306 174 313 174.5 315 176" stroke="black" stroke-width="4" stroke-linecap="round"/>
<path d="M330 152C332.5 166.5 345.5 163.5 349.5 159M336.5 152C340.667 152.167 349.5 152 351.5 150" stroke="black" stroke-width="4" stroke-linecap="round"/>
<path d="M366 103C366 104.657 365.5 106.5 363 106.5C361.343 106.5 360 104.657 360 103C360 100.5 361.343 99 363 99C364.657 99 366 101.343 366 103Z" fill="black"/>
<path d="M324.106 106.658C324.776 108.173 325.065 110.061 322.779 111.073C321.264 111.744 319.29 110.602 318.619 109.087C317.607 106.801 318.228 104.886 319.743 104.215C321.258 103.544 323.435 105.143 324.106 106.658Z" fill="black"/>
<path d="M308.5 79.9989C306.619 80.298 301 81.4989 301 77.8353C301 74.4989 306.01 73.1982 308 72.9995C313 72.5 314.448 76.2348 314.02 77.8353C313.592 79.4359 311 79.4989 308.5 79.9989Z" fill="black"/>
<path d="M333.5 133.5C341.328 133.618 348.592 134.866 348.5 141C348.439 145.065 335.828 150.118 328 150.001C316.188 149.823 310.439 147.065 310.5 142.999C310.561 138.934 323 133.5 333.5 133.5Z" fill="black"/>
<path d="M364.066 138.254C369.552 141.98 372.179 147.681 369.933 150.988C367.688 154.295 358.486 151.727 353 148.001C347.514 144.275 343.754 140.307 346 137C348.246 133.693 358.58 134.529 364.066 138.254Z" fill="black"/>
<path d="M268.5 72.999C289.5 51.4982 323 56.5 335.5 69.9995" stroke="black" stroke-width="4" stroke-linecap="round"/>
<path d="M297.5 52.9991C294 48.999 284.5 49.5 281.5 50.4991" stroke="black" stroke-width="4" stroke-linecap="round"/>
<path d="M297 42C301.5 44 306.5 49.8 306.5 51" stroke="black" stroke-width="4" stroke-linecap="round"/>
<path d="M348.5 76C348.5 77.6569 346.657 79.5 345 79.5C343.343 79.5 338.5 80 338.5 76.5C338.5 73.5 342.843 72.5 344.5 72.5C346.157 72.5 348.5 74.3431 348.5 76Z" fill="black"/>
<path d="M497.5 280.999C501.5 276 511 275.499 516 283C519.042 287.562 519.376 293.478 517 297C514.1 301.298 507.874 302.522 506.5 299.499C504 293.999 514 288.5 521.5 295.5C527.393 301 525 312 521 313.999" stroke="black" stroke-width="4" stroke-linecap="round"/>
<circle cx="514" cy="320" r="3" fill="black"/>
<path d="M304.5 265C288.5 300.5 292 319.1 298 325.5" stroke="white" stroke-width="4" stroke-linecap="round"/>
<circle cx="304" cy="333" r="2" fill="white"/>
<path d="M298 225.5C298.4 227.9 300.167 230.833 301 232" stroke="white" stroke-width="4" stroke-linecap="round"/>
<circle cx="304" cy="236" r="2" fill="white"/>
<path d="M247.501 97.5C243.501 102.5 247.501 121 252 124.5" stroke="white" stroke-width="3" stroke-linecap="round"/>
<path d="M288 99.9999C287.915 96.2903 277 82.6494 272 84.4987" stroke="white" stroke-width="3" stroke-linecap="round"/>
<path d="M530 72C530 111.212 500.817 142 460.5 142C420.183 142 384 106.712 384 67.5C384 28.2878 413.183 0 453.5 0C493.817 0 530 32.7878 530 72Z" fill="#7000FF"/>
<path d="M474.064 30C458.398 30.6667 427.765 32.4 426.565 34C425.065 36 414.064 46.5 415.064 48.5C416.064 50.5 461.564 45 463.564 46C465.564 47 486.564 97 486.064 99.5C485.564 102 444.564 107 441.064 105C438.264 103.4 421.897 66.3333 416.064 53.5" stroke="white" stroke-width="2" stroke-linecap="round"/>
<path d="M423.564 56C426.564 63.3333 436.064 81.5 439.564 89" stroke="white" stroke-width="2" stroke-linecap="round"/>
<path d="M476.064 35C483.564 45.5 497.064 76 499.564 85" stroke="white" stroke-width="2" stroke-linecap="round"/>
<path d="M429.064 39C438.731 38.1667 463.964 36 467.564 36" stroke="white" stroke-width="2" stroke-linecap="round"/>
<path d="M470.564 39C476.731 48.6667 490.264 76 493.064 86" stroke="white" stroke-width="2" stroke-linecap="round"/>
<path d="M424.564 44C434.898 43 462.264 41 465.064 41C467.864 41 482.564 74.5 489.064 92" stroke="white" stroke-width="2" stroke-linecap="round"/>
<path d="M473 18C483 18 494 27 495.5 34.5" stroke="black" stroke-width="5" stroke-linecap="round"/>
<path d="M416 93.5938C420.726 108.414 438.916 120.574 450.451 119.345" stroke="black" stroke-width="5" stroke-linecap="round"/>
<path d="M393 48C402.5 23.5 427.5 7 444 7M454.5 136C469.5 137 481.4 134.3 493 127.5" stroke="white" stroke-width="4" stroke-linecap="round"/>
<path d="M509.5 33.5C512 35 521.6 50.8 522 58" stroke="white" stroke-width="4" stroke-linecap="round"/>
<circle cx="443" cy="95" r="2" fill="white"/>
<path d="M42.5 205.524C46.8333 214.024 56.9 231.024 58.5 231.024C60.5 231.024 103 214.524 103.5 212.524C104 210.524 90.5 180.024 88 181.024C85.5 182.024 82 205.524 78.5 205.524C75 205.524 41 203.523 41 200.023C41 197.223 70.1667 183.166 83.5 178" stroke="black" stroke-width="4" stroke-linecap="round"/>
<path d="M147.702 210.502C147.414 215.97 148.348 224.843 149.169 225.346C150.195 225.974 176.886 231.347 177.734 230.537C178.582 229.728 180.667 210.754 179.088 210.452C177.509 210.15 165.293 220.301 163.496 219.202C161.7 218.103 148.314 206.565 149.348 204.874C150.176 203.521 168.406 205.019 176.777 206.71" stroke="black" stroke-width="4" stroke-linecap="round"/>
<path d="M21.1353 265.175C23.6064 272.387 29.2849 283.262 30.5211 283.422C32.0664 283.622 66.6066 274.711 67.1993 273.166C67.792 271.621 60.5082 245.948 58.4734 246.495C56.4385 247.043 47.1194 267.361 44.4152 267.011C41.7109 266.662 19.8372 259.741 20.1983 256.949C20.4872 254.716 42.9614 245.834 53.7966 243.046" stroke="black" stroke-width="4" stroke-linecap="round"/>
<path d="M97.0504 171.5C97.0504 177.851 91.2971 181.246 86.0504 181.246C80.8037 181.246 77.5507 177.5 78.0504 170.746C78.5504 163.992 82.3037 160 87.5504 160C92.7971 160 97.0504 163 97.0504 171.5Z" fill="#EF4C4C"/>
<path d="M88.0508 164.246C88.2174 166.246 88.4508 170.646 88.0508 172.246" stroke="white" stroke-width="4" stroke-linecap="round"/>
<circle cx="87.0508" cy="176.746" r="2" fill="white"/>
<path d="M191.198 206.336C187.888 211.757 181.208 211.656 176.73 208.922C172.252 206.188 171.428 201.296 175.374 195.792C179.32 190.288 184.604 188.836 189.082 191.57C193.56 194.304 195.627 199.081 191.198 206.336Z" fill="#EF4C4C"/>
<path d="M187.296 195.455C186.396 197.249 184.302 201.126 183.127 202.283" stroke="white" stroke-width="4" stroke-linecap="round"/>
<circle cx="179.929" cy="205.603" r="2" transform="rotate(31.4057 179.929 205.603)" fill="white"/>
<path d="M22.8654 251.106C26.6207 256.228 23.9881 262.368 19.7567 265.47C15.5254 268.572 10.687 267.475 7.09667 261.732C3.50652 255.99 4.17295 250.551 8.40428 247.449C12.6356 244.347 17.8396 244.251 22.8654 251.106Z" fill="#EF4C4C"/>
<path d="M11.3184 250.578C12.6353 252.093 15.4251 255.503 16.0485 257.03" stroke="white" stroke-width="4" stroke-linecap="round"/>
<circle cx="17.9029" cy="261.249" r="2" transform="rotate(-36.2472 17.9029 261.249)" fill="white"/>
</svg>
