<svg width="24" height="24" viewBox="0 0 24 24" fill="none" xmlns="http://www.w3.org/2000/svg">
<rect width="24" height="24" rx="4" fill="white"/>
<path d="M12.7195 4.4575L14.5382 8.3575C14.6581 8.6175 14.9079 8.8075 15.1877 8.8475L19.3247 9.4775C19.9642 9.5775 20.2241 10.3475 19.7744 10.8075L16.7266 13.9475C16.5367 14.1475 16.4468 14.4275 16.4868 14.6975L17.1962 19.0775C17.3062 19.7275 16.6067 20.2175 16.0271 19.8975L12.4097 17.8875C12.1499 17.7475 11.8301 17.7475 11.5703 17.8875L7.95292 19.8975C7.37334 20.2175 6.68384 19.7275 6.78377 19.0775L7.49326 14.6975C7.53323 14.4275 7.45328 14.1475 7.25343 13.9475L4.22562 10.8075C3.77594 10.3475 4.03575 9.5675 4.67529 9.4775L8.8123 8.8475C9.10209 8.8075 9.34192 8.6175 9.47183 8.3575L11.2805 4.4575C11.5603 3.8475 12.4297 3.8475 12.7095 4.4575H12.7195Z" stroke="#7000FF" stroke-linecap="round" stroke-linejoin="round"/>
<path d="M9.35205 10.918H10.0921" stroke="#8B9AFB" stroke-miterlimit="10" stroke-linecap="round"/>
</svg>
